<?xml version="1.0" standalone="no"?>
<!DOCTYPE svg PUBLIC "-//W3C//DTD SVG 20010904//EN"
 "http://www.w3.org/TR/2001/REC-SVG-20010904/DTD/svg10.dtd">
<svg version="1.0" xmlns="http://www.w3.org/2000/svg"
 width="512.000000pt" height="512.000000pt" viewBox="0 0 512.000000 512.000000"
 preserveAspectRatio="xMidYMid meet">
<metadata>
Created by potrace 1.14, written by Peter Selinger 2001-2017
</metadata>
<g transform="translate(0.000000,512.000000) scale(0.100000,-0.100000)"
fill="#000000" stroke="none">
<path d="M472 4879 c-93 -29 -158 -87 -207 -183 l-40 -79 -3 -1073 c-1 -638 1
-1074 7 -1074 5 0 16 11 25 25 29 44 275 292 365 368 47 39 88 75 91 78 14 16
218 163 305 220 324 212 705 383 1095 488 63 17 138 38 165 45 58 16 142 35
310 70 452 95 954 98 1653 10 60 -8 70 6 19 27 -18 8 -109 59 -202 113 -94 54
-222 129 -285 166 -63 37 -198 116 -300 175 -338 199 -579 308 -765 346 -217
45 -474 5 -699 -108 -85 -43 -268 -154 -318 -194 -21 -17 -38 -27 -38 -24 0 3
21 35 48 70 26 35 97 133 157 216 61 84 138 191 173 238 34 47 62 89 62 93 0
4 -350 8 -777 7 -747 0 -780 -1 -841 -20z"/>
<path d="M3335 4872 c107 -60 413 -231 460 -257 28 -15 100 -56 160 -90 61
-34 133 -74 160 -90 28 -15 151 -84 275 -153 124 -69 243 -135 265 -146 22
-12 86 -48 143 -80 56 -32 105 -57 107 -54 11 11 6 576 -5 618 -27 100 -96
191 -175 232 -90 47 -102 48 -790 48 l-650 0 50 -28z"/>
<path d="M3515 3479 c-540 -34 -1086 -185 -1500 -411 -199 -110 -301 -176
-465 -304 -589 -458 -937 -1028 -1011 -1659 -15 -123 -6 -422 15 -559 24 -150
64 -319 78 -328 7 -4 891 -8 1963 -8 2126 0 2028 -2 2136 57 62 33 113 89 148
163 l26 55 3 1446 2 1445 -97 22 c-128 29 -301 58 -438 72 -145 15 -682 21
-860 9z m-345 -786 c243 -66 420 -312 420 -583 0 -166 -52 -294 -165 -406
-205 -203 -520 -220 -753 -40 -284 218 -312 633 -60 887 144 145 352 198 558
142z m-1710 -1673 c74 -5 149 -12 166 -15 l31 -5 -24 -81 c-12 -45 -23 -89
-23 -98 0 -28 -7 -29 -68 -15 -31 8 -109 17 -172 20 -99 5 -120 3 -150 -13
-26 -13 -36 -26 -38 -48 -6 -47 16 -55 156 -55 187 0 228 -27 226 -150 -2
-113 -56 -186 -170 -231 -52 -20 -76 -23 -209 -23 -95 0 -190 6 -260 18 -159
25 -146 13 -119 104 12 42 26 76 31 75 43 -8 323 -23 348 -19 45 9 61 30 47
60 -10 23 -16 24 -129 28 -175 6 -219 32 -230 140 -8 75 18 158 64 209 88 97
217 121 523 99z m451 -16 l95 -7 -64 -225 c-36 -129 -61 -235 -58 -248 13 -49
97 -49 129 0 8 12 43 123 77 249 l63 227 149 0 c81 0 148 -2 148 -5 0 -20
-146 -518 -161 -546 -22 -44 -69 -85 -129 -113 -41 -19 -63 -21 -257 -21 -199
0 -213 1 -240 21 -47 35 -73 82 -73 133 0 37 120 506 137 534 5 9 57 9 184 1z
m1208 -18 c48 -22 66 -61 69 -150 7 -161 -29 -246 -129 -301 -53 -30 -56 -30
-238 -35 l-184 -5 -14 -60 c-7 -33 -15 -70 -18 -82 -5 -22 -8 -23 -144 -23
l-139 0 87 339 86 339 300 -5 c191 -3 309 -9 324 -17z m851 12 c0 -7 -13 -53
-28 -103 l-28 -90 -194 -3 c-107 -1 -197 -6 -201 -10 -4 -4 -10 -24 -13 -44
l-7 -38 196 0 c107 0 195 -1 195 -2 0 -2 -9 -30 -19 -63 l-19 -60 -195 4 -195
3 -11 -38 c-20 -72 -33 -68 190 -60 192 7 201 7 197 -11 -3 -10 -14 -48 -24
-85 l-18 -68 -339 0 c-283 0 -338 2 -334 14 3 7 40 146 82 307 42 162 81 309
86 327 l11 32 334 0 c261 0 334 -3 334 -12z m688 -9 c54 -27 81 -79 82 -157 0
-123 -62 -188 -206 -215 l-66 -12 29 -40 c16 -22 59 -84 96 -137 l68 -98 -165
0 -165 0 -72 116 c-39 63 -75 111 -79 107 -4 -4 -17 -56 -30 -116 l-23 -107
-139 0 c-76 0 -138 2 -138 5 0 6 168 644 175 663 3 9 72 12 297 12 278 0 294
-1 336 -21z"/>
<path d="M2726 812 c-6 -10 -46 -153 -46 -164 0 -5 43 -8 96 -8 92 0 97 1 125
29 22 22 29 39 29 68 0 44 -6 55 -37 72 -25 13 -159 15 -167 3z"/>
<path d="M4242 750 l-20 -80 95 0 c89 0 95 1 118 26 18 19 25 38 25 65 0 58
-18 69 -114 69 l-84 0 -20 -80z"/>
</g>
</svg>
