<?xml version="1.0" standalone="no"?>
<!DOCTYPE svg PUBLIC "-//W3C//DTD SVG 20010904//EN"
 "http://www.w3.org/TR/2001/REC-SVG-20010904/DTD/svg10.dtd">
<svg version="1.0" xmlns="http://www.w3.org/2000/svg"
 width="1000.000000pt" height="1000.000000pt" viewBox="0 0 1000.000000 1000.000000"
 preserveAspectRatio="xMidYMid meet">
<metadata>
Created by potrace 1.14, written by Peter Selinger 2001-2017
</metadata>
<g transform="translate(0.000000,1000.000000) scale(0.100000,-0.100000)"
fill="#000000" stroke="none">
<path d="M5840 9674 c-203 -39 -360 -68 -580 -110 -41 -7 -277 -52 -525 -100
-247 -47 -466 -88 -485 -91 -19 -3 -40 -10 -47 -15 -7 -5 -17 -7 -22 -3 -6 3
-30 0 -53 -7 -24 -6 -50 -13 -58 -14 -34 -6 -124 -32 -114 -33 14 -1 126 19
144 26 8 3 19 5 24 4 5 -1 16 1 25 5 9 3 34 8 56 10 22 2 51 6 65 9 14 4 54
10 90 15 36 5 137 23 225 39 88 17 180 33 204 36 23 3 47 8 52 11 5 3 30 7 56
10 27 3 71 9 98 15 47 9 156 27 290 49 33 6 73 13 90 16 26 6 28 5 16 -10 -17
-21 -7 -21 14 0 39 39 124 34 126 -8 0 -20 1 -21 8 -5 4 10 10 18 14 18 21 -3
28 0 22 9 -3 6 -1 10 6 10 7 0 9 3 6 6 -4 4 -14 1 -22 -6 -12 -10 -19 -10 -27
-2 -8 8 -8 13 3 17 13 4 346 69 429 82 30 5 110 48 110 59 0 5 20 9 -240 -42z"/>
<path d="M6102 9179 c4 -681 6 -779 20 -779 5 0 8 7 4 15 -3 8 0 15 6 15 9 0
9 3 1 11 -8 8 -8 20 -3 34 5 13 6 26 3 29 -4 3 -6 59 -5 124 0 64 1 276 2 470
2 294 4 354 16 359 10 4 14 23 14 65 0 53 -2 59 -15 48 -8 -7 -15 -8 -15 -2 0
5 6 15 13 21 15 12 21 68 9 75 -4 2 -7 -8 -6 -22 3 -56 -11 -44 -16 12 -3 37
-10 61 -18 64 -11 3 -13 -91 -10 -539z m35 299 c-3 -7 -5 -2 -5 12 0 14 2 19
5 13 2 -7 2 -19 0 -25z"/>
<path d="M6145 9700 c3 -5 8 -10 11 -10 2 0 4 5 4 10 0 6 -5 10 -11 10 -5 0
-7 -4 -4 -10z"/>
<path d="M6218 9685 l32 -26 2 -537 c1 -295 3 -519 5 -497 3 22 8 44 13 49 5
5 7 -5 4 -22 -4 -24 0 -33 17 -42 17 -10 20 -9 14 1 -5 8 -4 10 3 5 7 -4 12
-14 12 -23 0 -8 6 -13 13 -10 8 3 14 -1 14 -10 0 -9 -7 -13 -19 -10 -11 3 -15
1 -12 -5 4 -6 0 -14 -7 -20 -11 -7 -9 -8 6 -6 11 2 24 8 28 13 6 6 10 6 14 -3
2 -6 9 -10 14 -6 5 3 9 -3 9 -13 0 -15 2 -15 9 -4 7 10 4 19 -7 27 -17 12 -27
78 -11 68 5 -3 9 -15 10 -27 0 -12 3 -16 6 -9 2 6 9 12 15 12 6 0 7 -8 4 -17
-4 -10 -4 -14 0 -10 4 4 14 1 23 -6 14 -11 14 -10 2 6 -12 15 -12 17 3 11 9
-4 15 -12 13 -18 -2 -6 0 -21 4 -33 8 -23 -4 -33 -16 -13 -8 13 -35 13 -35 0
0 -6 8 -10 18 -8 9 2 16 -3 15 -9 -2 -7 2 -12 9 -10 6 1 14 -7 16 -18 4 -17 2
-18 -12 -6 -15 12 -15 11 -1 -15 12 -25 14 -203 15 -1348 0 -1233 -1 -1318
-17 -1305 -15 13 -15 12 -3 -10 11 -21 10 -23 -4 -18 -10 4 -15 3 -11 -3 3 -6
12 -10 20 -10 16 0 14 -36 -3 -65 -10 -17 -11 -15 -8 18 2 21 1 35 -2 32 -3
-2 -11 0 -19 6 -10 9 -13 6 -13 -12 -1 -22 -2 -22 -11 -6 -8 13 -8 22 -1 29
12 12 5 38 -10 38 -6 0 -4 -7 3 -17 13 -15 12 -15 -10 -3 -21 11 -23 10 -18
-4 4 -11 3 -15 -4 -10 -6 3 -8 17 -5 30 4 13 2 24 -3 24 -5 0 -8 8 -7 17 0 10
-8 19 -19 21 -11 2 -23 9 -27 16 -5 7 -8 6 -8 -4 -1 -9 -6 -5 -15 10 -19 33
-18 194 -19 -2846 l-1 -2562 50 20 c28 11 66 26 85 33 19 7 301 118 625 248
325 129 712 283 860 342 149 59 457 181 685 272 228 91 523 208 655 260 335
132 306 115 301 177 -3 28 -6 96 -7 151 -1 55 -7 117 -14 139 -8 21 -11 46 -8
55 4 11 1 10 -11 -4 -17 -20 -17 -20 -11 3 4 14 2 22 -5 22 -8 0 -10 8 -7 21
4 15 2 19 -9 15 -14 -5 -19 9 -16 47 1 9 -3 17 -9 17 -5 0 -7 4 -4 10 3 5 2
36 -4 67 -9 52 -14 278 -26 1138 -2 143 -4 265 -5 270 0 6 1 89 3 185 2 96 0
183 -5 193 -5 10 -5 17 1 17 6 0 10 115 11 293 1 160 2 317 2 347 0 30 0 70
-1 89 -1 33 -1 33 -25 18 -19 -13 -103 -17 -537 -26 -916 -19 -1028 -21 -1454
-26 -231 -3 -529 -8 -662 -11 l-243 -5 0 25 c0 22 5 25 43 30 34 5 395 15 535
15 24 0 32 5 32 19 0 11 -7 18 -20 18 -11 0 -20 -7 -20 -15 0 -9 -12 -1 -29
19 -16 19 -27 37 -24 40 2 2 8 -2 13 -10 9 -13 10 -13 10 0 0 27 -12 60 -22
60 -6 0 -7 -7 -4 -16 3 -8 2 -12 -4 -9 -6 3 -10 17 -10 31 0 13 -5 24 -12 24
-6 0 -8 3 -4 7 4 5 14 -1 22 -11 13 -19 14 -19 14 5 0 15 3 19 8 12 4 -6 7 6
7 27 0 21 -2 34 -6 28 -4 -7 -9 -7 -13 1 -10 16 3 33 21 27 8 -4 11 -1 8 5
-10 16 28 6 43 -11 11 -13 11 -13 7 0 -6 17 295 17 1680 1 352 -4 643 -6 647
-4 3 2 7 211 7 466 1 477 5 561 25 550 6 -3 5 0 -1 8 -7 7 -13 27 -13 44 0 23
3 26 10 15 8 -13 10 -12 10 3 0 10 5 15 10 12 6 -3 10 3 10 15 0 12 5 18 10
15 6 -3 10 -15 10 -26 0 -17 3 -18 20 -9 11 6 20 20 20 32 0 18 -2 19 -17 7
-17 -13 -17 -13 0 7 16 19 17 84 17 1045 0 563 -4 1030 -8 1037 -6 9 -3140
1273 -3287 1325 -12 5 -7 -3 13 -18z m79 -1035 c-2 -11 -6 -22 -9 -26 -4 -3
-5 2 -3 13 2 10 4 21 4 26 1 4 3 7 6 7 3 0 4 -9 2 -20z m150 -37 c-4 -3 -1
-13 6 -22 11 -14 10 -14 -5 -2 -21 15 -23 31 -6 31 6 0 8 -3 5 -7z m838 -415
c236 -69 271 -81 286 -94 9 -8 20 -38 23 -67 18 -137 227 -1490 239 -1547 11
-48 16 -60 22 -46 8 17 0 720 -9 781 -2 17 -7 207 -11 424 -7 381 -6 394 11
387 11 -4 48 -16 84 -26 70 -19 435 -128 642 -192 70 -21 129 -42 132 -46 3
-5 33 -147 66 -318 34 -170 66 -313 71 -319 19 -20 27 5 89 289 33 148 38 182
39 234 1 42 8 41 154 -4 84 -27 117 -42 117 -53 0 -15 -38 -161 -199 -758
l-71 -262 0 -460 c0 -253 -3 -466 -6 -475 -6 -15 -51 -15 -199 0 l-50 5 -3
149 c-1 93 2 151 8 155 13 8 14 642 1 647 -4 2 -25 89 -46 193 -24 122 -44
198 -56 213 l-18 24 -5 -24 c-2 -12 -11 -70 -20 -127 -19 -124 -74 -249 -131
-299 -19 -17 -35 -37 -35 -44 0 -7 52 -200 115 -429 63 -229 115 -423 115
-432 0 -23 -17 -25 -125 -16 -55 4 -117 8 -138 9 -21 0 -39 5 -41 13 -8 27
-47 214 -50 242 -4 30 -33 154 -83 353 -14 56 -28 100 -31 97 -3 -3 -12 5 -19
17 -10 19 -12 -41 -13 -335 0 -328 -1 -358 -17 -364 -15 -6 -1248 71 -1350 84
-29 4 -43 11 -46 24 -3 11 -2 19 2 19 4 0 7 8 8 18 2 26 14 99 27 162 2 14 7
45 10 70 3 25 12 81 21 125 9 44 18 92 20 107 10 74 29 137 39 131 8 -5 8 -2
0 8 -6 8 -10 23 -8 34 2 11 6 40 8 65 2 25 11 70 19 100 9 30 21 93 26 140 9
79 19 141 42 250 5 25 11 69 14 98 3 30 7 57 10 61 5 9 33 154 41 211 4 33 32
189 74 415 10 55 22 125 25 155 4 30 9 58 11 61 2 4 6 28 9 54 4 27 10 71 16
98 5 27 9 52 9 54 0 3 8 2 18 -2 9 -4 62 -21 117 -37z m1875 2 c0 -5 -2 -10
-4 -10 -3 0 -8 5 -11 10 -3 6 -1 10 4 10 6 0 11 -4 11 -10z m128 -40 l102 -35
-1 -50 c-1 -45 -2 -47 -10 -21 -4 17 -6 32 -4 34 5 5 -39 42 -49 42 -3 0 -6
-8 -6 -17 0 -14 -2 -15 -9 -5 -4 7 -12 12 -17 11 -5 -2 -24 1 -42 5 -24 6 -32
12 -27 23 4 13 3 14 -9 4 -12 -10 -14 -9 -9 8 4 16 1 19 -16 16 -14 -2 -21 1
-21 11 0 9 4 14 8 12 5 -1 55 -19 110 -38z m-2958 -2394 c0 -3 -4 -8 -10 -11
-5 -3 -10 -1 -10 4 0 6 5 11 10 11 6 0 10 -2 10 -4z m10 -38 c0 -18 -2 -20 -9
-8 -6 8 -7 18 -5 22 9 14 14 9 14 -14z m30 -49 c0 -6 -4 -7 -10 -4 -5 3 -10
11 -10 16 0 6 5 7 10 4 6 -3 10 -11 10 -16z m47 -4 c0 -8 -4 -15 -9 -15 -10 0
-11 14 -1 23 9 10 10 9 10 -8z m31 -58 c5 -16 1 -27 -9 -27 -8 0 -7 6 2 18 13
16 12 16 -4 3 -23 -19 -61 -23 -47 -6 5 7 8 14 5 16 -2 3 8 4 23 4 15 0 28 -4
30 -8z m-11 -87 c-1 -10 -3 -17 -6 -15 -2 3 -11 -1 -19 -8 -13 -10 -14 -9 -3
11 6 12 9 22 6 22 -4 0 -3 5 0 10 9 15 24 2 22 -20z m467 -366 c3 -8 2 -12 -4
-9 -6 3 -10 10 -10 16 0 14 7 11 14 -7z m56 -9 c0 -14 5 -25 11 -25 18 0 5
-33 -14 -36 -12 -2 -17 2 -13 11 2 7 -1 16 -9 19 -8 3 -16 -3 -18 -12 -3 -12
-5 -11 -6 6 -1 13 5 22 14 22 8 0 15 8 15 18 0 13 -2 14 -9 4 -7 -11 -9 -11
-14 2 -5 12 0 16 18 16 20 0 25 -5 25 -25z m-122 -36 c-3 -8 -7 -3 -11 10 -4
17 -3 21 5 13 5 -5 8 -16 6 -23z m35 -9 c3 -11 1 -18 -4 -14 -5 3 -9 12 -9 20
0 20 7 17 13 -6z m79 -100 c2 -22 0 -36 -4 -32 -11 11 -17 72 -8 72 4 0 10
-18 12 -40z m-2 -56 c0 -8 -19 -13 -24 -6 -3 5 1 9 9 9 8 0 15 -2 15 -3z
m2061 -783 l39 -39 0 -130 c0 -77 -4 -133 -10 -137 -6 -3 -23 3 -39 14 -49 35
-68 28 -86 -31 -8 -28 -15 -80 -15 -116 0 -57 8 -81 70 -225 38 -89 77 -194
86 -232 24 -95 24 -359 1 -463 -38 -171 -132 -302 -217 -302 -34 0 -43 5 -59
31 -17 27 -19 53 -21 190 0 88 2 159 5 159 3 0 23 -12 44 -26 22 -14 50 -24
63 -22 37 5 59 64 60 155 0 83 0 84 -100 310 -50 113 -72 219 -79 388 -6 139
4 209 49 338 34 98 100 173 157 176 7 1 31 -16 52 -38z m-255 -34 c5 -14 -1
-96 -61 -797 -20 -228 -44 -512 -54 -631 -10 -120 -21 -222 -25 -227 -7 -11
-113 -38 -119 -31 -2 2 -21 216 -41 474 -41 515 -50 597 -59 575 -5 -14 -69
-776 -84 -1003 -3 -53 -11 -101 -17 -105 -16 -12 -129 -43 -135 -36 -6 6 -5
-13 -41 399 -17 193 -51 565 -76 829 -25 263 -42 482 -37 486 4 4 42 11 84 15
l77 7 6 -49 c3 -26 11 -127 16 -223 6 -96 19 -303 30 -459 11 -156 20 -293 20
-304 0 -146 66 657 83 999 l2 52 50 6 c96 11 92 14 99 -61 3 -38 20 -255 36
-483 17 -228 35 -424 39 -435 5 -11 13 53 20 160 22 328 49 830 45 837 -4 6
31 11 109 16 15 1 30 -4 33 -11z m-791 -79 c6 -18 35 -312 30 -316 -1 -2 -34
-7 -71 -13 -127 -17 -114 5 -114 -185 l0 -166 33 6 c102 18 119 19 128 5 10
-16 10 -272 0 -309 -6 -22 -17 -27 -78 -40 -39 -8 -74 -17 -77 -20 -6 -7 -10
-389 -4 -396 3 -2 43 5 88 16 46 10 86 17 89 14 3 -3 6 -83 6 -177 l0 -171
-165 -48 c-91 -26 -173 -48 -182 -48 -17 0 -18 50 -18 914 l0 914 133 12 c72
6 137 13 142 15 24 8 56 4 60 -7z m-383 -935 c2 -500 1 -915 0 -924 -3 -12
-29 -23 -85 -37 -45 -12 -85 -18 -88 -14 -4 4 -21 90 -39 192 -36 207 -159
832 -164 837 -14 14 -18 -138 -15 -579 3 -327 0 -511 -6 -517 -13 -12 -145
-51 -174 -51 l-21 0 2 973 3 972 100 11 c73 8 103 8 111 0 7 -6 24 -81 38
-166 64 -372 148 -835 152 -839 2 -2 4 230 4 516 l0 520 57 2 c31 1 59 4 62 6
2 3 17 5 32 5 l28 0 3 -907z"/>
<path d="M8140 7165 l0 -263 38 -7 c20 -3 48 -9 61 -12 18 -4 22 -3 16 7 -5 9
-4 11 4 6 18 -12 42 14 35 37 -4 12 -2 17 4 13 15 -9 30 22 38 82 4 36 3 52
-5 52 -17 0 -13 48 5 58 15 8 15 10 0 15 -19 7 -21 43 -3 50 10 3 10 9 0 26
-7 11 -13 28 -13 36 0 23 -60 124 -80 135 -9 5 -36 13 -59 19 l-41 9 0 -263z"/>
<path d="M7355 7348 c-13 -61 -137 -910 -133 -913 5 -4 242 -35 266 -35 29 0
29 -1 -39 525 -55 423 -58 445 -75 445 -7 0 -16 -10 -19 -22z"/>
<path d="M5654 9568 c-5 -7 -3 -8 6 -3 7 4 16 2 21 -6 7 -11 9 -10 9 4 0 19
-25 23 -36 5z"/>
<path d="M5656 9533 c-6 -14 -5 -15 5 -6 7 7 10 15 7 18 -3 3 -9 -2 -12 -12z"/>
<path d="M5495 9519 c-4 -6 -5 -12 -2 -15 2 -3 7 2 10 11 7 17 1 20 -8 4z"/>
<path d="M5610 9471 c0 -6 4 -12 8 -15 5 -3 9 1 9 9 0 8 -4 15 -9 15 -4 0 -8
-4 -8 -9z"/>
<path d="M5410 9444 c0 -8 5 -12 10 -9 6 3 10 10 10 16 0 5 -4 9 -10 9 -5 0
-10 -7 -10 -16z"/>
<path d="M5550 9451 c0 -4 11 -6 25 -3 14 2 25 6 25 8 0 2 -11 4 -25 4 -14 0
-25 -4 -25 -9z"/>
<path d="M5375 9439 c-4 -6 -5 -12 -2 -15 2 -3 7 2 10 11 7 17 1 20 -8 4z"/>
<path d="M6149 9443 c-5 -30 -4 -65 3 -69 4 -3 8 13 8 35 0 23 -2 41 -5 41 -3
0 -6 -3 -6 -7z"/>
<path d="M5321 9424 c0 -11 3 -14 6 -6 3 7 2 16 -1 19 -3 4 -6 -2 -5 -13z"/>
<path d="M5419 9415 c-4 -3 -3 -23 1 -45 5 -26 3 -41 -4 -44 -7 -3 -6 -8 4
-15 24 -17 28 -13 23 24 -7 51 -18 87 -24 80z"/>
<path d="M5375 9390 c2 -27 10 -33 12 -10 1 11 -2 22 -6 24 -4 3 -7 -4 -6 -14z"/>
<path d="M5492 9344 c-7 -8 -8 -14 -3 -14 10 0 25 19 20 25 -2 1 -10 -3 -17
-11z"/>
<path d="M5350 9336 c0 -2 7 -7 16 -10 8 -3 12 -2 9 4 -6 10 -25 14 -25 6z"/>
<path d="M5536 9332 c-3 -5 1 -9 9 -9 8 0 12 4 9 9 -3 4 -7 8 -9 8 -2 0 -6 -4
-9 -8z"/>
<path d="M6143 9310 c0 -16 4 -30 9 -30 10 0 10 31 0 48 -6 8 -9 2 -9 -18z"/>
<path d="M3915 9300 c-3 -5 1 -10 10 -10 9 0 13 5 10 10 -3 6 -8 10 -10 10 -2
0 -7 -4 -10 -10z"/>
<path d="M5230 9310 c-7 -18 -5 -49 3 -41 5 5 7 17 4 27 -3 11 -6 17 -7 14z"/>
<path d="M5315 9289 c-4 -6 -5 -12 -2 -15 2 -3 7 2 10 11 7 17 1 20 -8 4z"/>
<path d="M5372 9288 c2 -6 10 -14 16 -16 7 -2 10 2 6 12 -7 18 -28 22 -22 4z"/>
<path d="M5550 9290 c-9 -6 -10 -10 -3 -10 6 0 15 5 18 10 8 12 4 12 -15 0z"/>
<path d="M5450 9286 c0 -2 7 -6 15 -10 8 -3 15 -1 15 4 0 6 -7 10 -15 10 -8 0
-15 -2 -15 -4z"/>
<path d="M5190 9253 c5 -2 8 -9 4 -14 -3 -5 0 -9 6 -9 15 0 7 23 -8 26 -7 1
-8 0 -2 -3z"/>
<path d="M5326 9243 c-6 -14 -5 -15 5 -6 7 7 10 15 7 18 -3 3 -9 -2 -12 -12z"/>
<path d="M5620 9243 c0 -13 -3 -22 -7 -22 -5 1 -10 1 -13 -1 -22 -8 -50 -8
-45 0 4 6 -11 10 -39 10 -26 0 -46 -5 -46 -11 0 -6 9 -8 23 -4 17 5 19 4 7 -4
-21 -15 -50 -14 -44 2 3 8 -4 13 -17 14 -16 2 -20 -3 -16 -17 4 -15 -2 -20
-35 -25 -22 -4 -42 -4 -45 -1 -4 3 3 6 15 6 24 0 27 7 12 30 -8 13 -10 12 -10
-3 0 -14 -5 -17 -19 -12 -22 7 -40 -13 -21 -25 7 -4 -7 -10 -34 -14 -25 -4
-50 -4 -56 -1 -5 3 -10 2 -10 -3 0 -9 -50 -19 -130 -27 -14 -1 -32 -5 -40 -8
-27 -9 -42 -12 -795 -142 -463 -80 -2224 -376 -2445 -410 -199 -31 -216 -33
-228 -17 -7 9 -10 22 -7 30 3 8 0 10 -6 6 -7 -4 -9 5 -6 29 2 19 0 40 -5 45
-6 6 -4 12 6 15 11 4 17 -1 21 -16 2 -12 6 -31 8 -42 3 -11 5 -3 6 17 1 26 -5
41 -18 50 -23 16 -39 68 -22 68 6 0 11 8 12 18 0 12 3 10 10 -7 5 -13 11 -22
12 -20 1 2 9 13 17 24 14 18 14 19 -2 7 -15 -12 -18 -11 -24 13 l-7 27 -13
-28 c-8 -16 -19 -37 -26 -46 -10 -14 -10 -22 0 -38 17 -27 15 -35 -5 -19 -11
10 -14 10 -9 2 4 -7 2 -13 -3 -13 -6 0 -11 6 -11 14 0 8 -6 17 -12 19 -9 4 -8
6 2 6 20 1 43 55 37 87 -3 19 0 24 16 24 11 0 18 3 15 6 -3 3 -32 0 -65 -6
-32 -7 -71 -13 -88 -15 -16 -1 -32 -3 -35 -5 -3 -1 -8 -2 -12 -1 -12 2 -891
-160 -900 -165 -5 -3 -8 -1557 -7 -3542 1 -1946 -2 -3558 -6 -3584 -4 -27 -11
-48 -17 -48 -18 0 -119 -82 -115 -93 2 -7 -2 -18 -9 -25 -11 -10 -14 -10 -15
0 -1 7 -5 -3 -9 -22 -7 -28 -5 -41 13 -67 14 -20 29 -31 42 -30 13 1 19 -3 17
-12 -2 -11 0 -12 11 -3 9 8 24 9 45 2 18 -5 35 -9 37 -9 3 0 12 -4 20 -9 14
-7 14 -12 0 -40 -9 -18 -13 -37 -8 -44 9 -16 15 -36 17 -65 0 -13 5 -23 9 -23
5 0 6 -4 2 -10 -5 -8 11 -46 25 -60 3 -3 13 -17 22 -32 12 -19 14 -28 6 -30
-8 -3 -4 -15 11 -37 13 -18 26 -30 29 -27 3 3 11 1 19 -5 10 -9 17 -8 28 1 28
23 121 11 307 -40 101 -28 198 -53 216 -55 18 -2 36 -6 40 -9 4 -2 32 -7 62
-11 30 -3 71 -10 90 -15 27 -7 170 -20 235 -21 11 0 50 8 50 11 0 1 18 4 40 6
22 3 55 9 74 14 19 5 39 6 44 3 6 -4 7 -1 2 7 -6 10 -4 12 8 7 10 -3 17 -2 17
4 0 6 4 7 10 4 5 -3 7 0 4 9 -4 10 1 15 13 15 10 1 25 2 33 3 9 1 28 -2 44 -6
21 -5 26 -4 20 6 -6 10 -5 11 8 1 8 -7 18 -10 21 -6 4 3 20 6 37 5 16 0 30 3
30 8 0 6 10 6 24 0 13 -5 39 -6 57 -3 69 11 230 6 254 -9 6 -3 18 -4 28 -3 17
3 267 -31 297 -40 8 -3 33 -7 55 -10 22 -3 49 -7 60 -9 11 -2 67 -11 125 -21
58 -9 141 -25 185 -35 44 -10 98 -21 120 -24 22 -2 90 -14 150 -26 61 -12 119
-23 130 -25 11 -1 38 -7 60 -13 47 -12 303 -69 503 -112 24 -6 66 -16 94 -25
28 -8 54 -12 59 -9 5 3 9 1 9 -5 0 -5 8 -9 18 -9 9 0 53 -10 97 -22 44 -13 90
-24 103 -24 12 -1 22 -3 22 -7 0 -3 17 -6 37 -6 21 -1 39 -6 41 -12 2 -6 17
-11 32 -11 16 0 31 -4 34 -9 4 -5 25 -12 49 -16 23 -4 49 -14 58 -21 9 -8 31
-17 50 -20 19 -3 47 -7 63 -10 16 -2 40 -11 53 -19 13 -9 23 -13 23 -10 0 3
14 -1 30 -10 16 -9 30 -13 30 -10 0 3 8 1 18 -4 9 -5 35 -12 57 -15 21 -4 42
-10 45 -15 10 -15 54 -34 84 -36 17 -1 38 -4 46 -8 8 -4 26 -8 40 -11 14 -2
42 -12 63 -21 22 -9 36 -11 32 -6 -3 6 -1 11 4 11 6 0 11 -4 11 -10 0 -5 9
-10 19 -10 11 0 23 -5 27 -11 4 -8 9 -7 15 2 5 9 9 10 9 3 0 -7 12 -15 28 -19
25 -7 25 -8 7 -15 -22 -9 116 -14 335 -11 81 1 136 6 138 12 3 6 9 6 18 -2 11
-9 14 -8 14 3 0 8 12 21 28 28 35 17 82 23 82 10 0 -7 6 -7 18 -1 13 7 27 6
46 -4 14 -8 24 -10 21 -5 -4 6 -2 10 4 10 14 0 42 -30 37 -39 -3 -4 0 -9 7
-11 19 -5 1733 -7 1816 -3 49 3 70 8 60 14 -10 6 -10 9 -1 9 6 0 12 9 12 20 0
11 7 20 15 20 9 0 35 20 59 45 25 25 54 46 65 46 12 1 26 3 31 4 6 1 15 3 20
4 6 0 10 8 10 16 0 8 9 15 19 15 10 0 22 7 25 16 3 8 10 13 16 9 5 -3 23 1 40
10 16 8 32 15 35 15 17 0 19 1 6 9 -11 7 -9 12 10 22 21 11 101 32 164 43 69
12 95 19 95 27 0 12 59 41 70 34 6 -3 10 -1 10 4 0 6 10 11 23 11 13 0 33 9
45 20 12 11 24 20 27 20 14 0 60 55 58 70 -2 9 0 10 3 2 3 -6 10 -10 15 -6 5
3 9 -1 10 -8 0 -7 5 -2 11 12 6 14 10 31 9 38 -1 6 3 12 9 12 5 0 10 6 10 14
0 8 7 22 16 31 9 8 13 22 10 30 -5 14 30 42 46 37 9 -2 48 102 48 128 0 10 4
20 9 22 6 2 12 14 15 28 11 55 15 70 20 79 4 5 2 11 -4 13 -11 3 5 38 63 132
20 32 34 62 32 66 -6 10 15 27 40 32 11 1 26 9 33 16 8 7 17 10 21 8 4 -3 13
4 21 14 8 10 18 16 24 13 5 -4 7 1 3 10 -4 10 -1 17 5 17 6 0 8 3 5 7 -4 3 -3
11 3 18 5 6 11 27 13 47 2 20 15 50 30 67 22 26 25 36 17 57 -6 14 -6 23 -1
20 10 -6 31 37 31 64 0 11 7 20 16 20 8 0 12 5 8 11 -3 6 0 15 7 20 12 7 11 9
-1 9 -12 1 -11 3 3 14 17 13 16 14 -11 24 -16 5 -41 22 -57 36 -27 25 -43 31
-74 27 -7 -2 -10 2 -6 8 4 8 -1 8 -17 1 -13 -5 -264 -106 -558 -224 -462 -185
-1713 -687 -2445 -982 -126 -50 -232 -90 -235 -87 -3 2 4 12 15 20 13 11 15
14 4 10 -15 -5 -17 26 -23 311 -4 175 -7 1320 -6 2547 1 1227 1 2539 1 2918
-2 677 -2 687 -21 677 -17 -9 -19 -19 -15 -88 2 -50 0 -82 -8 -91 -9 -11 -9
-13 -1 -8 7 4 14 0 18 -8 3 -9 -1 -15 -11 -15 -12 0 -13 -3 -4 -13 6 -8 9 -16
6 -19 -3 -3 -6 -21 -7 -41 -1 -20 -5 -34 -9 -32 -9 6 -6 -15 4 -32 4 -6 4 -18
1 -27 -3 -9 -1 -16 5 -16 6 0 11 -5 11 -11 0 -6 -6 -9 -12 -6 -17 6 -15 276
-18 -3088 -1 -1589 -5 -2911 -8 -2937 l-7 -48 -32 26 -33 25 0 2585 c0 2060
-3 2584 -12 2584 -9 0 -9 3 -3 8 6 4 12 44 13 89 1 72 -1 81 -15 76 -11 -4
-14 -3 -9 5 5 8 1 10 -10 5 -10 -4 -13 -8 -6 -11 7 -2 8 -11 2 -28 -8 -21 -7
-24 11 -24 11 0 18 -4 15 -9 -3 -4 -17 -6 -31 -3 -14 2 -25 1 -24 -4 4 -22 -2
-33 -16 -28 -9 4 -15 0 -15 -10 0 -9 6 -16 13 -16 6 0 4 -5 -6 -11 -10 -6 -21
-8 -24 -5 -4 3 -2 6 3 6 5 0 9 12 8 28 -1 15 -3 33 -3 40 -1 7 -5 11 -11 7 -5
-3 -7 -12 -3 -21 3 -8 2 -14 -3 -13 -26 4 -37 -3 -17 -11 14 -6 21 -15 17 -24
-3 -8 -2 -21 2 -28 15 -24 13 -38 -9 -53 -27 -19 -56 -19 -63 0 -4 8 -10 13
-15 10 -4 -3 -5 -13 -2 -22 6 -15 5 -16 -9 -3 -9 8 -14 18 -12 22 3 5 -20 4
-36 -2 -3 -1 -9 -2 -14 -1 -5 1 -6 -4 -3 -12 3 -7 -4 -19 -14 -25 -10 -7 -18
-15 -18 -20 4 -23 -2 -72 -8 -72 -15 0 -8 85 7 98 13 11 13 11 0 7 -12 -4 -16
8 -18 67 -2 50 1 74 10 80 10 6 10 8 0 8 -10 0 -12 345 -12 1715 1 943 5 1715
9 1715 10 0 3 47 -11 77 -9 18 -14 20 -25 11 -11 -9 -17 -9 -24 3 -7 11 -9 9
-9 -8z m-4137 -594 c-6 -6 -10 1 -10 23 0 30 1 30 10 10 7 -15 7 -26 0 -33z
m65 -20 c-3 -36 -5 -40 -26 -36 -12 2 -25 0 -28 -4 -3 -5 1 -9 9 -9 7 0 19
-11 25 -25 14 -30 -1 -34 -25 -6 -9 11 -20 18 -24 15 -4 -2 -5 5 -2 16 3 11 9
20 14 20 5 0 9 8 9 18 1 15 2 15 15 -2 14 -19 15 -18 15 17 0 20 5 37 10 37 6
0 9 -18 8 -41z m24 -93 c-3 -5 -9 -1 -13 10 -12 31 -10 39 5 19 8 -11 12 -24
8 -29z m-266 -63 c-4 -9 -1 -20 5 -24 13 -8 -7 -12 -291 -65 -107 -20 -225
-37 -262 -38 l-68 -1 0 -31 c0 -17 3 -34 7 -38 4 -3 7 -21 8 -39 0 -17 4 -38
8 -44 5 -8 3 -13 -4 -13 -7 0 -6 -8 5 -25 9 -14 12 -25 6 -25 -6 0 -6 -9 0
-25 6 -17 6 -25 -1 -25 -6 0 -7 -6 -2 -12 14 -23 14 -58 1 -58 -9 0 -8 -3 2
-10 13 -8 15 -164 15 -1302 -1 -1531 0 -1485 -28 -1515 -11 -13 -25 -23 -30
-23 -9 0 -4 3219 5 3224 2 1 122 21 268 45 146 24 278 46 294 49 24 4 28 2 23
-11 -4 -11 -2 -14 8 -11 7 3 16 12 19 20 3 8 8 14 12 14 3 0 3 -8 0 -17z m54
8 c0 -6 -4 -13 -10 -16 -5 -3 -10 1 -10 9 0 9 5 16 10 16 6 0 10 -4 10 -9z
m3810 -108 c-6 -16 -15 -37 -20 -48 -5 -11 -27 -58 -48 -105 -21 -47 -56 -121
-77 -165 -54 -111 -193 -391 -204 -412 -11 -20 -220 -449 -287 -589 l-43 -90
-5 -425 c-2 -233 -5 -499 -5 -592 l-1 -167 -26 6 c-15 4 -29 2 -33 -4 -4 -7
-91 -14 -249 -18 l-242 -7 0 562 0 561 -94 193 c-51 105 -109 224 -127 262
-25 55 -33 65 -36 47 -3 -12 -13 -27 -24 -32 -23 -13 -26 -50 -4 -50 11 0 14
-7 11 -22 -3 -13 -8 -41 -11 -63 -9 -61 -15 -75 -31 -75 -8 0 -14 -5 -14 -10
0 -29 -67 -179 -106 -237 -24 -36 -44 -74 -44 -84 0 -23 -49 -62 -71 -56 -11
3 -16 0 -13 -7 5 -13 -56 -46 -86 -46 -11 0 -20 -5 -20 -10 0 -6 51 -108 114
-228 211 -405 326 -641 326 -671 0 -16 6 -31 13 -34 19 -6 -183 -17 -363 -19
l-165 -1 -158 344 c-88 189 -169 368 -180 396 -12 29 -25 53 -29 53 -5 0 -8
-182 -8 -405 0 -375 -3 -430 -25 -395 -3 6 -14 10 -23 9 -14 0 -13 -2 3 -9 11
-5 15 -9 8 -9 -6 -1 -357 -12 -780 -26 -422 -13 -836 -27 -919 -30 -119 -5
-153 -3 -162 7 -8 10 14 125 88 463 269 1224 380 1717 390 1735 6 11 16 20 23
20 7 1 120 16 252 34 132 18 241 30 243 26 2 -4 12 -6 22 -3 17 4 18 1 14 -28
-4 -22 8 -86 30 -177 20 -79 52 -210 71 -290 64 -272 233 -967 250 -1025 9
-31 21 -57 26 -57 5 0 9 321 9 819 0 643 3 821 13 828 6 5 53 15 102 21 50 7
267 36 483 66 215 30 400 52 410 50 19 -6 516 61 532 71 17 11 32 -5 20 -21
-9 -10 16 -81 114 -321 168 -413 159 -394 175 -391 7 2 26 35 41 73 15 39 80
207 144 375 65 167 124 320 132 340 14 33 17 35 67 37 64 3 578 71 585 78 3 3
11 5 18 5 10 0 11 -6 4 -27z m837 -2605 c-3 -8 -6 -5 -6 6 -1 11 2 17 5 13 3
-3 4 -12 1 -19z m-212 -218 c2 -13 0 -29 -6 -37 -9 -10 -8 -13 1 -13 8 0 10
-3 6 -7 -4 -5 -14 1 -22 11 -12 17 -14 18 -14 3 0 -9 -4 -17 -10 -17 -5 0 -9
11 -8 25 2 19 7 24 20 19 14 -4 18 0 18 21 0 15 -5 25 -11 23 -6 -2 -10 -7 -9
-12 2 -11 -22 -26 -31 -20 -4 2 2 15 14 29 18 19 24 22 35 11 7 -6 14 -23 17
-36z m25 0 c0 -5 -5 -10 -11 -10 -5 0 -7 5 -4 10 3 6 8 10 11 10 2 0 4 -4 4
-10z m90 -10 c0 -5 -5 -10 -11 -10 -5 0 -7 5 -4 10 3 6 8 10 11 10 2 0 4 -4 4
-10z m-185 -34 c0 -15 -4 -21 -9 -16 -5 5 -6 16 -3 24 9 22 12 20 12 -8z m42
-32 c-3 -3 -12 -4 -19 -1 -8 3 -5 6 6 6 11 1 17 -2 13 -5z m30 -16 c-3 -8 -6
-5 -6 6 -1 11 2 17 5 13 3 -3 4 -12 1 -19z m31 -37 c11 -7 10 -9 -3 -14 -9 -4
-14 -3 -10 2 3 5 -1 12 -7 14 -7 3 -8 6 -3 6 6 0 16 -3 23 -8z m-528 -253 c0
-9 2 -10 8 -2 4 7 27 11 52 11 42 -1 43 -2 18 -11 -16 -5 -28 -14 -28 -19 0
-5 7 -6 16 -3 9 4 23 1 30 -5 11 -9 14 -7 15 7 0 18 1 18 9 -1 5 -11 9 -14 9
-7 1 6 6 12 12 12 8 0 8 -5 -1 -15 -7 -8 -23 -15 -36 -15 -12 0 -29 -7 -38
-15 -8 -8 -19 -15 -25 -15 -6 0 -11 -4 -11 -9 0 -15 52 -2 67 17 10 14 14 15
22 3 7 -11 11 -10 20 5 9 17 10 17 11 2 0 -16 -11 -22 -32 -19 -14 2 -52 -63
-40 -67 14 -4 16 -22 2 -22 -5 0 -12 11 -16 25 -3 14 -12 25 -19 25 -7 0 -11
-10 -10 -25 2 -14 -1 -25 -7 -25 -6 0 -5 -6 2 -15 10 -12 10 -15 0 -15 -7 0
-10 -7 -5 -17 4 -12 3 -15 -4 -8 -5 6 -11 21 -13 34 -1 14 -10 27 -18 29 -13
4 -13 3 -2 -11 15 -17 8 -57 -10 -57 -7 0 -6 5 1 14 10 12 9 20 -5 41 -9 14
-19 23 -22 20 -3 -3 3 -14 13 -25 10 -11 15 -23 11 -27 -4 -4 -11 -1 -15 6 -6
9 -11 10 -15 2 -4 -6 -2 -11 3 -11 6 0 11 -5 11 -11 0 -6 -7 -8 -16 -5 -8 3
-12 2 -9 -4 3 -6 -5 -10 -19 -10 -16 0 -26 -6 -26 -15 0 -17 -16 -20 -24 -6
-4 5 0 11 6 14 10 3 10 8 -1 18 -8 8 -11 9 -8 3 9 -16 -19 -37 -49 -39 -28 -1
-29 2 -7 27 24 27 8 22 -23 -7 -21 -19 -29 -22 -36 -13 -5 9 -8 10 -8 1 0 -9
-95 -10 -397 -6 -359 4 -502 8 -526 12 -5 0 -5 7 -1 14 4 6 -2 3 -14 -7 -12
-11 -25 -16 -29 -13 -3 4 -1 7 5 7 7 0 12 7 12 15 0 8 5 15 10 15 6 0 10 8 10
18 -1 15 -2 15 -12 -3 -11 -19 -11 -19 -18 0 -4 11 -3 26 2 33 7 8 7 12 -1 12
-10 0 -15 -13 -12 -32 0 -5 -5 -8 -13 -8 -8 0 -16 -6 -19 -12 -8 -23 -20 0
-13 26 5 19 11 24 24 19 15 -6 15 -5 -1 12 -16 15 -20 16 -28 4 -7 -11 -9 -11
-9 4 0 9 5 17 10 17 6 0 10 7 10 16 0 14 -3 14 -15 4 -11 -9 -15 -9 -15 -1 0
6 7 14 15 17 8 3 17 14 20 23 7 22 49 20 53 -2 6 -32 24 -17 20 16 -3 32 13
63 26 50 10 -10 7 -25 -4 -18 -5 3 -10 1 -10 -4 0 -13 3 -13 24 -5 9 3 16 13
16 20 0 12 4 12 21 3 17 -8 20 -8 14 1 -6 9 6 11 44 9 28 -2 51 -1 51 3 0 3
227 7 505 7 407 2 505 -1 505 -11z m-1875 -14 c-11 -8 -15 -13 -8 -10 6 4 13
-2 16 -11 3 -14 6 -11 11 10 5 15 15 27 23 27 8 0 12 -4 8 -9 -3 -5 -1 -12 5
-16 13 -8 13 -35 -1 -35 -5 0 -8 4 -4 9 3 5 1 12 -5 16 -16 10 -12 -21 5 -35
8 -7 15 -9 15 -5 0 5 2 6 5 3 8 -8 -6 -38 -17 -38 -5 0 -6 5 -3 10 3 6 2 10
-4 10 -5 0 -9 -13 -9 -29 1 -22 5 -28 16 -23 9 3 13 1 9 -5 -4 -6 2 -22 13
-36 31 -39 24 -46 -8 -8 -22 27 -33 32 -50 27 -14 -5 -22 -15 -22 -29 1 -22 1
-22 17 -2 14 18 15 18 9 2 -4 -13 -2 -17 6 -14 7 2 12 11 10 18 -3 12 -1 12
10 0 10 -11 10 -14 1 -18 -7 -3 -13 -11 -13 -19 0 -8 -4 -14 -10 -14 -5 0 -10
5 -10 10 0 17 -25 11 -40 -9 -13 -19 -14 -19 -26 -3 -9 12 -13 13 -14 4 0 -7
-5 -10 -10 -7 -8 5 -7 11 1 21 10 12 9 13 -5 8 -10 -4 -15 -13 -12 -20 3 -7 1
-16 -4 -19 -6 -4 -10 0 -10 7 0 9 -3 9 -10 -2 -9 -13 -11 -13 -20 0 -5 8 -10
10 -10 4 0 -7 -16 -12 -37 -12 -194 1 -393 -6 -393 -13 0 -4 8 -13 18 -19 12
-8 -281 -10 -1060 -7 -988 4 -1078 3 -1082 -12 -3 -9 -3 -29 -1 -46 6 -41 6
-612 0 -820 -6 -203 -9 -247 -19 -263 -4 -7 -2 -12 4 -12 6 0 8 -4 5 -10 -8
-12 -21 -453 -24 -829 -1 -41 -3 -72 -6 -69 -3 3 -7 480 -10 1062 l-4 1056
190 0 c104 0 189 2 189 5 0 10 -24 55 -30 55 -3 0 -11 -5 -18 -12 -7 -7 -12
-8 -12 -2 0 5 9 15 19 21 15 10 22 9 30 -1 6 -7 9 -15 6 -18 -3 -2 2 -5 10 -5
11 0 13 7 8 26 -3 14 -10 31 -15 36 -6 6 -6 3 -2 -9 5 -13 4 -17 -4 -12 -14 8
-16 56 -4 56 17 0 54 -49 47 -61 -5 -8 -4 -10 3 -5 17 11 15 20 -13 51 -22 23
-24 29 -13 43 11 13 11 14 0 8 -10 -6 -13 -1 -10 20 l3 29 195 5 c107 3 645 6
1195 8 913 2 997 1 980 -14z m668 -4 c-3 -12 -8 -19 -11 -16 -5 6 5 36 12 36
2 0 2 -9 -1 -20z m-570 -45 c-4 -23 -2 -35 6 -35 6 0 11 7 11 15 0 8 6 15 13
15 8 0 7 3 -3 10 -8 5 -11 12 -8 16 4 3 14 0 22 -9 13 -13 14 -16 1 -21 -9 -3
-12 -12 -8 -22 5 -13 3 -15 -7 -9 -9 6 -12 4 -8 -6 5 -12 -3 -15 -31 -16 -28
-1 -32 1 -15 7 16 7 20 15 17 34 -3 14 -3 32 1 41 10 27 15 16 9 -20z m392 25
c-3 -5 2 -10 11 -10 14 0 15 -3 6 -12 -10 -10 -15 -10 -22 2 -8 13 -5 30 6 30
3 0 2 -4 -1 -10z m81 -15 c-5 -20 -3 -23 11 -19 15 5 15 4 3 -4 -8 -6 -18 -8
-22 -6 -12 8 -10 54 3 54 7 0 9 -10 5 -25z m-162 -9 c-3 -9 -10 -13 -15 -10
-5 3 -3 11 4 19 15 16 19 13 11 -9z m21 -24 c-10 -10 -16 -12 -13 -7 3 6 8 19
13 30 5 14 9 16 12 7 3 -8 -3 -21 -12 -30z m1635 23 c0 -8 -4 -15 -10 -15 -5
0 -7 7 -4 15 4 8 8 15 10 15 2 0 4 -7 4 -15z m-4460 -5 c0 -5 -5 -10 -11 -10
-5 0 -7 5 -4 10 3 6 8 10 11 10 2 0 4 -4 4 -10z m2584 -29 c-6 -6 -24 19 -24
34 1 6 7 1 15 -9 8 -11 12 -22 9 -25z m56 15 c0 -3 -4 -8 -10 -11 -5 -3 -10
-1 -10 4 0 6 5 11 10 11 6 0 10 -2 10 -4z m256 -12 c-4 -10 -1 -14 6 -11 7 2
19 -3 26 -12 11 -14 12 -13 6 9 -4 16 -3 22 4 15 14 -15 25 -68 12 -60 -5 3
-10 0 -11 -7 0 -7 -5 -1 -11 15 -5 15 -14 27 -19 27 -12 0 -12 -17 1 -25 15
-9 12 -37 -2 -32 -7 2 -12 12 -10 22 2 10 -1 14 -7 10 -6 -3 -9 0 -5 8 3 8 1
18 -5 22 -7 4 -7 11 2 20 16 19 20 18 13 -1z m-110 -3 c-4 -5 -1 -12 4 -14 6
-3 5 -4 -2 -3 -15 3 -23 26 -8 26 6 0 9 -4 6 -9z m-119 -25 c-3 -7 0 -19 6
-26 7 -7 0 -5 -15 5 -31 19 -36 28 -13 19 8 -4 15 -1 15 5 0 6 3 11 6 11 3 0
4 -6 1 -14z m199 2 c4 -6 0 -16 -9 -23 -10 -7 -17 -18 -17 -26 0 -11 -2 -11
-10 1 -6 9 -5 17 1 21 6 3 9 10 8 15 -4 25 14 34 27 12z m-281 -8 c3 -6 -1 -7
-9 -4 -18 7 -21 14 -7 14 6 0 13 -4 16 -10z m-20 -18 c-3 -3 -11 0 -18 7 -9
10 -8 11 6 5 10 -3 15 -9 12 -12z m-27 -28 c-3 -14 -5 -12 -10 9 -3 19 -2 25
4 19 6 -6 8 -18 6 -28z m62 16 c0 -5 -5 -10 -11 -10 -5 0 -7 5 -4 10 3 6 8 10
11 10 2 0 4 -4 4 -10z m1730 -10 c6 -11 8 -20 6 -20 -3 0 -10 9 -16 20 -6 11
-8 20 -6 20 3 0 10 -9 16 -20z m-1605 -19 c3 -5 1 -12 -5 -16 -5 -3 -10 1 -10
9 0 18 6 21 15 7z m-197 -36 c4 6 15 11 26 13 15 3 16 1 5 -11 -8 -8 -17 -13
-21 -10 -5 2 -8 0 -8 -4 0 -5 -8 -9 -19 -10 -14 -1 -17 3 -13 19 4 15 7 17 13
6 6 -8 12 -9 17 -3z m513 -2 c10 -11 10 -14 2 -9 -9 5 -13 1 -13 -11 -1 -17
-1 -17 -11 0 -5 9 -7 22 -4 27 8 13 10 13 26 -7z m-2633 -839 c20 -3 32 -11
32 -20 0 -15 69 -306 181 -769 28 -115 55 -217 60 -225 5 -9 9 202 9 493 l0
507 68 0 c37 0 90 -3 117 -6 l50 -6 0 -875 1 -874 -31 5 c-16 3 -63 8 -103 12
-45 4 -80 13 -91 23 -13 11 -35 84 -70 226 -29 116 -86 343 -129 505 l-77 295
-8 -55 c-5 -30 -7 -254 -5 -497 3 -413 2 -443 -13 -443 -22 0 -166 19 -196 25
l-23 5 0 843 0 842 97 -3 c54 -1 113 -5 131 -8z m847 -39 c83 -3 173 -8 200
-11 l51 -6 22 -146 c31 -202 31 -194 -20 -188 -24 3 -91 8 -151 11 l-107 5 2
-167 3 -168 125 -12 c69 -6 126 -12 128 -12 1 -1 2 -64 2 -140 0 -83 4 -142
10 -146 6 -3 10 -17 10 -31 0 -22 -4 -24 -47 -23 -27 0 -82 4 -123 8 -117 12
-108 29 -103 -197 3 -109 6 -198 7 -199 1 -1 63 -10 139 -21 92 -12 140 -15
147 -8 7 7 10 -50 10 -177 0 -103 -2 -187 -4 -187 -2 0 -122 16 -267 35 -145
19 -267 35 -271 35 -10 0 -10 1744 -1 1754 4 3 25 4 47 2 23 -3 109 -8 191
-11z m547 -27 c45 -1 48 -3 53 -32 3 -17 25 -224 50 -461 25 -236 52 -484 60
-550 8 -67 15 -126 15 -133 0 -7 5 -12 10 -12 6 0 10 13 10 29 0 25 121 1007
136 1103 l6 37 127 -2 127 -2 58 -440 c94 -712 105 -792 112 -770 2 6 31 267
64 580 33 314 63 580 65 591 5 21 9 21 117 17 62 -2 127 -6 145 -9 29 -4 31
-7 27 -37 -3 -18 -27 -176 -55 -352 -27 -176 -67 -437 -89 -580 -34 -228 -69
-452 -126 -810 l-16 -101 -37 3 c-99 9 -202 26 -207 34 -6 10 -81 542 -114
809 -39 319 -64 489 -71 485 -12 -8 -51 -266 -166 -1117 -10 -72 -23 -130 -29
-132 -16 -6 -226 22 -236 32 -4 4 -44 255 -88 558 -44 302 -102 698 -130 879
-27 182 -50 345 -50 364 l0 33 93 -6 c50 -4 113 -7 139 -8z m1724 -63 c91 -40
106 -62 115 -164 9 -108 11 -241 3 -241 -4 0 -41 15 -83 34 -42 19 -95 37
-118 41 -38 6 -46 3 -82 -25 -22 -18 -47 -49 -55 -70 -25 -64 -22 -210 5 -210
14 0 240 -308 237 -322 -2 -7 7 -28 20 -45 28 -40 98 -187 108 -228 4 -16 14
-35 22 -41 22 -16 35 -191 21 -284 -21 -146 -77 -269 -152 -337 -23 -20 -41
-41 -40 -45 2 -4 -16 -12 -40 -18 -23 -6 -60 -16 -82 -22 -22 -6 -76 -11 -120
-10 -97 0 -176 32 -236 95 l-39 39 0 190 c0 126 3 187 10 183 6 -4 7 -11 4
-17 -4 -7 -2 -8 5 -4 13 9 74 -28 114 -68 48 -48 149 -47 200 1 40 38 57 82
57 145 0 75 -27 125 -175 328 -144 198 -184 271 -221 401 -24 84 -26 102 -22
223 5 110 10 143 33 206 89 242 307 355 511 265z m-3906 -969 c0 -3 -4 -8 -10
-11 -5 -3 -10 -1 -10 4 0 6 5 11 10 11 6 0 10 -2 10 -4z m37 -253 c0 -33 -1
-37 -4 -15 -2 17 -9 32 -14 32 -7 0 8 26 17 30 0 0 1 -21 1 -47z m0 -105 c-3
-8 -6 -5 -6 6 -1 11 2 17 5 13 3 -3 4 -12 1 -19z m-13 -54 c17 -16 23 -79 7
-69 -6 3 -8 15 -6 27 3 12 -3 30 -12 40 -20 22 -11 24 11 2z m13 -296 c-3 -8
-6 -5 -6 6 -1 11 2 17 5 13 3 -3 4 -12 1 -19z m0 -80 c-3 -8 -6 -5 -6 6 -1 11
2 17 5 13 3 -3 4 -12 1 -19z m258 -529 c377 -61 763 -128 785 -136 8 -4 20 -5
27 -4 6 1 14 -3 18 -9 3 -5 0 -7 -8 -4 -9 3 -17 -6 -24 -28 l-11 -33 -1 35
c-1 30 -5 36 -24 38 -15 1 -24 -4 -24 -13 0 -8 4 -15 9 -15 5 0 6 -5 2 -11 -4
-8 -9 -8 -17 0 -13 13 -47 -14 -47 -36 0 -7 -5 -13 -11 -13 -5 0 -7 -4 -4 -10
3 -5 1 -10 -4 -10 -6 0 -11 7 -11 15 0 13 -2 13 -14 3 -10 -9 -11 -15 -2 -20
17 -12 -3 -9 -25 3 -19 10 -19 9 -10 -10 10 -17 9 -20 -4 -15 -8 4 -15 15 -15
25 0 10 -4 19 -9 19 -5 0 -8 -11 -5 -25 l4 -24 -27 25 -27 25 -16 -35 c-15
-33 -16 -34 -31 -15 -16 19 -49 18 -49 -2 0 -4 8 -5 18 -2 15 6 15 5 3 -10
-17 -21 -31 -22 -31 -2 0 8 -4 15 -10 15 -5 0 -10 -5 -10 -11 0 -6 -7 -8 -16
-5 -11 4 -15 2 -11 -8 4 -10 0 -12 -14 -9 -10 3 -19 9 -19 14 0 5 -7 9 -16 9
-8 0 -12 5 -9 10 3 6 1 10 -5 10 -7 0 -10 -7 -6 -15 3 -8 -4 -21 -17 -30 -13
-9 -23 -11 -25 -5 -2 6 -9 7 -14 4 -7 -4 -8 -2 -4 5 8 13 -10 41 -27 41 -6 0
-2 -7 9 -15 15 -11 16 -14 4 -15 -9 0 -22 6 -28 12 -10 10 -15 10 -22 -2 -13
-20 -13 -4 0 20 8 14 5 19 -13 25 -12 4 -33 8 -47 9 -14 1 -24 7 -23 14 2 7
-1 12 -7 12 -11 0 -9 -28 5 -50 8 -13 7 -13 -8 -1 -9 7 -17 20 -17 27 0 17
-40 19 -40 2 0 -7 -5 -5 -11 5 -6 11 -7 23 -1 34 7 12 4 22 -13 37 -12 12 -20
28 -18 36 3 9 1 11 -4 5 -4 -5 -15 -16 -24 -22 -13 -10 -16 -10 -16 2 0 8 4
15 9 15 11 0 10 42 -2 60 -7 11 -8 6 -4 -17 4 -20 2 -33 -4 -33 -6 0 -17 -3
-26 -6 -9 -3 -16 -1 -16 6 0 6 5 8 10 5 15 -9 12 8 -6 33 -9 13 -14 31 -11 42
2 10 1 24 -4 31 -7 11 -12 12 -28 2 -17 -11 -19 -10 -15 2 8 19 4 19 159 -6z
m2 -191 c-4 -9 -8 -6 -12 9 -4 13 -12 20 -18 16 -6 -4 -7 -1 -2 6 10 17 40
-11 32 -31z m540 -90 c-3 -8 -6 -5 -6 6 -1 11 2 17 5 13 3 -3 4 -12 1 -19z
m-200 -104 c-3 -3 -12 -4 -19 -1 -8 3 -5 6 6 6 11 1 17 -2 13 -5z m46 -11 c-7
-2 -19 -2 -25 0 -7 3 -2 5 12 5 14 0 19 -2 13 -5z m182 -19 c44 -8 105 -19
135 -24 92 -16 603 -109 800 -145 102 -19 262 -48 355 -65 94 -17 285 -53 425
-80 140 -26 337 -63 437 -81 100 -18 180 -36 177 -40 -2 -4 13 -6 33 -4 l38 5
-35 -10 c-37 -9 -74 -3 -800 131 -179 33 -336 62 -350 64 -68 12 -867 162
-1100 206 -146 28 -267 53 -269 55 -8 8 78 1 154 -12z"/>
<path d="M2837 7573 c-20 -2 -35 -8 -32 -14 8 -12 8 -555 1 -568 -8 -12 128
-3 164 12 14 6 30 11 35 11 26 2 76 54 104 105 55 105 63 240 19 342 -24 58
-95 130 -107 110 -7 -10 -13 -10 -29 -2 -20 11 -76 12 -155 4z"/>
<path d="M1632 7108 c-19 -87 -148 -728 -155 -775 -1 -11 -8 -28 -15 -36 -11
-13 -7 -14 30 -11 24 2 110 9 192 14 82 5 150 11 153 13 5 6 -168 870 -177
880 -3 4 -16 -34 -28 -85z"/>
<path d="M5370 5129 c0 -5 5 -7 10 -4 6 3 10 8 10 11 0 2 -4 4 -10 4 -5 0 -10
-5 -10 -11z"/>
<path d="M5326 5113 c-6 -14 -5 -15 5 -6 7 7 10 15 7 18 -3 3 -9 -2 -12 -12z"/>
<path d="M4040 5085 c0 -8 4 -15 8 -15 5 0 8 -10 8 -21 -1 -12 6 -24 14 -26
13 -4 13 -3 1 5 -12 9 -12 13 -2 26 10 12 11 16 1 16 -7 0 -10 7 -6 15 3 9 0
15 -9 15 -8 0 -15 -7 -15 -15z"/>
<path d="M5260 5060 c0 -5 5 -10 10 -10 6 0 10 5 10 10 0 6 -4 10 -10 10 -5 0
-10 -4 -10 -10z"/>
<path d="M5290 5056 c0 -8 -5 -16 -12 -18 -9 -3 -9 -6 0 -12 7 -4 12 -2 12 4
0 6 4 9 9 6 5 -4 7 3 4 14 -6 23 -13 26 -13 6z"/>
<path d="M5076 4953 c-6 -14 -5 -15 5 -6 7 7 10 15 7 18 -3 3 -9 -2 -12 -12z"/>
<path d="M5211 4961 c-8 -5 -9 -11 -3 -15 5 -3 12 1 16 9 6 17 6 18 -13 6z"/>
<path d="M1130 5138 c0 -9 5 -20 10 -23 13 -8 13 5 0 25 -8 13 -10 13 -10 -2z"/>
<path d="M1082 5104 c0 -29 3 -41 13 -41 11 0 12 4 4 13 -6 7 -9 17 -6 21 2 4
1 17 -3 28 -5 14 -8 9 -8 -21z"/>
<path d="M3386 5095 c4 -8 8 -15 10 -15 2 0 4 7 4 15 0 8 -4 15 -10 15 -5 0
-7 -7 -4 -15z"/>
<path d="M3420 5095 c-10 -12 -10 -15 4 -15 9 0 16 7 16 15 0 8 -2 15 -4 15
-2 0 -9 -7 -16 -15z"/>
<path d="M1113 5017 c6 -49 16 -59 13 -13 -1 19 -5 38 -9 43 -4 4 -6 -10 -4
-30z"/>
<path d="M3372 4975 c6 -14 15 -25 20 -25 5 0 1 11 -8 25 -9 14 -18 25 -20 25
-2 0 2 -11 8 -25z"/>
<path d="M2810 4890 c-12 -8 -10 -10 8 -10 13 0 20 4 17 10 -7 12 -6 12 -25 0z"/>
<path d="M2298 2303 c7 -3 16 -2 19 1 4 3 -2 6 -13 5 -11 0 -14 -3 -6 -6z"/>
<path d="M2550 2280 c0 -5 5 -10 11 -10 5 0 7 5 4 10 -3 6 -8 10 -11 10 -2 0
-4 -4 -4 -10z"/>
<path d="M2882 3765 c0 -16 2 -22 5 -12 2 9 2 23 0 30 -3 6 -5 -1 -5 -18z"/>
<path d="M2892 3680 c0 -19 2 -27 5 -17 2 9 2 25 0 35 -3 9 -5 1 -5 -18z"/>
<path d="M2902 3600 c0 -14 2 -19 5 -12 2 6 2 18 0 25 -3 6 -5 1 -5 -13z"/>
<path d="M3022 2805 c0 -16 2 -22 5 -12 2 9 2 23 0 30 -3 6 -5 -1 -5 -18z"/>
<path d="M3701 2134 c0 -11 3 -14 6 -6 3 7 2 16 -1 19 -3 4 -6 -2 -5 -13z"/>
<path d="M4623 2158 c-11 -13 -24 -30 -28 -38 -8 -16 -6 -14 34 33 14 15 22
27 19 27 -2 0 -14 -10 -25 -22z"/>
<path d="M4510 2060 c-9 -6 -10 -10 -3 -10 6 0 15 5 18 10 8 12 4 12 -15 0z"/>
<path d="M840 1650 c0 -11 5 -20 10 -20 6 0 10 9 10 20 0 11 -4 20 -10 20 -5
0 -10 -9 -10 -20z"/>
<path d="M1650 1540 c0 -5 5 -10 11 -10 5 0 7 5 4 10 -3 6 -8 10 -11 10 -2 0
-4 -4 -4 -10z"/>
<path d="M977 1496 c-4 -10 0 -14 13 -13 14 1 16 4 8 14 -13 16 -15 16 -21 -1z"/>
<path d="M1216 1412 c-3 -6 -1 -14 5 -17 14 -9 20 -2 10 14 -6 8 -11 9 -15 3z"/>
<path d="M6151 9244 c0 -11 3 -14 6 -6 3 7 2 16 -1 19 -3 4 -6 -2 -5 -13z"/>
<path d="M5570 9240 c0 -5 5 -10 10 -10 6 0 10 5 10 10 0 6 -4 10 -10 10 -5 0
-10 -4 -10 -10z"/>
<path d="M5277 9215 c-4 -8 -3 -16 1 -19 4 -3 9 4 9 15 2 23 -3 25 -10 4z"/>
<path d="M5380 9220 c0 -5 5 -10 10 -10 6 0 10 5 10 10 0 6 -4 10 -10 10 -5 0
-10 -4 -10 -10z"/>
<path d="M5210 9206 c0 -8 5 -18 10 -21 6 -3 10 1 10 9 0 8 -4 18 -10 21 -5 3
-10 -1 -10 -9z"/>
<path d="M5248 9214 c-8 -7 2 -44 12 -44 4 0 5 11 2 25 -5 27 -6 28 -14 19z"/>
<path d="M6145 9210 c-3 -5 -1 -18 4 -27 9 -16 10 -14 11 10 0 28 -5 34 -15
17z"/>
<path d="M5050 9160 c-13 -8 -12 -10 3 -10 9 0 17 5 17 10 0 12 -1 12 -20 0z"/>
<path d="M6145 9110 c-3 -5 -1 -10 4 -10 6 0 11 5 11 10 0 6 -2 10 -4 10 -3 0
-8 -4 -11 -10z"/>
<path d="M6146 9073 c-6 -14 -5 -15 5 -6 7 7 10 15 7 18 -3 3 -9 -2 -12 -12z"/>
<path d="M1621 8758 c0 -9 -4 -25 -7 -35 -5 -17 -5 -17 6 0 6 10 9 25 7 35 -4
15 -5 15 -6 0z"/>
<path d="M1620 8686 c0 -9 5 -16 10 -16 6 0 10 4 10 9 0 6 -4 13 -10 16 -5 3
-10 -1 -10 -9z"/>
<path d="M6270 8586 c0 -2 7 -7 16 -10 8 -3 12 -2 9 4 -6 10 -25 14 -25 6z"/>
<path d="M6252 8550 c0 -14 2 -19 5 -12 2 6 2 18 0 25 -3 6 -5 1 -5 -13z"/>
<path d="M6277 8559 c7 -7 15 -10 18 -7 3 3 -2 9 -12 12 -14 6 -15 5 -6 -5z"/>
<path d="M6250 8506 c0 -8 7 -17 16 -20 23 -9 24 -4 2 17 -14 13 -18 14 -18 3z"/>
<path d="M6340 8505 c23 -28 51 -38 64 -24 8 9 7 11 -6 6 -11 -4 -23 1 -30 11
-7 9 -19 18 -27 20 -12 3 -12 1 -1 -13z"/>
<path d="M6347 8459 c7 -7 15 -10 18 -7 3 3 -2 9 -12 12 -14 6 -15 5 -6 -5z"/>
<path d="M6113 8320 c0 -36 2 -50 4 -32 2 17 2 47 0 65 -2 17 -4 3 -4 -33z"/>
<path d="M6115 8240 c3 -5 8 -10 11 -10 2 0 4 5 4 10 0 6 -5 10 -11 10 -5 0
-7 -4 -4 -10z"/>
<path d="M6131 7244 c0 -11 3 -14 6 -6 3 7 2 16 -1 19 -3 4 -6 -2 -5 -13z"/>
<path d="M6131 7068 c0 -36 3 -47 8 -33 4 11 6 32 5 48 -3 19 0 26 8 21 7 -4
8 -3 4 4 -16 26 -26 9 -25 -40z"/>
<path d="M6126 6995 c-3 -8 -1 -15 4 -15 6 0 10 7 10 15 0 8 -2 15 -4 15 -2 0
-6 -7 -10 -15z"/>
<path d="M6151 6974 c0 -11 3 -14 6 -6 3 7 2 16 -1 19 -3 4 -6 -2 -5 -13z"/>
<path d="M6133 6958 c3 -10 2 -20 -3 -23 -14 -9 0 -34 16 -28 19 7 18 31 -3
51 -16 16 -16 16 -10 0z"/>
<path d="M6295 5950 c3 -5 8 -10 11 -10 2 0 4 5 4 10 0 6 -5 10 -11 10 -5 0
-7 -4 -4 -10z"/>
<path d="M6250 5934 c0 -8 7 -14 15 -14 9 0 12 -6 8 -17 -3 -10 -3 -15 2 -11
4 4 14 0 22 -10 12 -15 13 -14 7 13 -4 17 -10 34 -15 39 -14 16 -39 15 -39 0z"/>
<path d="M5992 5909 c4 -9 1 -22 -5 -28 -8 -8 -5 -11 11 -11 26 0 28 15 5 38
-15 15 -16 15 -11 1z"/>
<path d="M6350 5916 c0 -2 8 -10 18 -17 15 -13 16 -12 3 4 -13 16 -21 21 -21
13z"/>
<path d="M5923 5888 c-13 -6 -23 -15 -23 -21 0 -5 11 -2 25 7 14 9 31 14 37
10 7 -4 8 -3 4 4 -9 14 -14 14 -43 0z"/>
<path d="M5949 5863 c-1 -5 -1 -11 0 -15 0 -4 -6 -5 -14 -2 -8 4 -15 1 -15 -5
0 -6 6 -11 13 -11 14 0 37 20 37 32 0 10 -20 11 -21 1z"/>
<path d="M5990 5855 c0 -3 7 -14 16 -23 15 -14 16 -14 13 3 -4 17 -29 35 -29
20z"/>
<path d="M6350 5844 c0 -6 7 -19 16 -30 14 -18 14 -18 3 6 -14 31 -19 36 -19
24z"/>
<path d="M5888 5803 c7 -3 16 -2 19 1 4 3 -2 6 -13 5 -11 0 -14 -3 -6 -6z"/>
<path d="M5930 5795 c-11 -13 -10 -14 4 -9 9 3 16 10 16 15 0 13 -6 11 -20 -6z"/>
<path d="M5910 5760 c19 -13 30 -13 30 0 0 6 -10 10 -22 10 -19 0 -20 -2 -8
-10z"/>
<path d="M5823 5705 c0 -7 6 -11 14 -8 7 3 13 6 13 8 0 2 -6 5 -13 8 -8 3 -14
-1 -14 -8z"/>
<path d="M5849 5677 c6 -8 8 -17 4 -20 -3 -4 -2 -7 4 -7 6 0 14 -7 17 -16 5
-14 4 -15 -8 -5 -8 7 -23 11 -33 9 -10 -1 -23 1 -29 5 -7 4 -15 0 -18 -9 -4
-10 -2 -14 6 -11 7 2 22 -4 33 -14 25 -22 61 -16 68 12 3 10 2 19 -3 19 -4 0
-11 11 -14 25 -4 14 -14 25 -22 25 -13 0 -14 -3 -5 -13z"/>
<path d="M5824 5672 c3 -5 0 -13 -6 -15 -9 -4 -10 -6 -1 -6 17 -1 25 16 12 25
-7 4 -9 3 -5 -4z"/>
<path d="M5704 5629 c-4 -8 -3 -9 4 -5 7 4 12 3 12 -3 0 -5 -6 -11 -12 -14 -7
-2 -11 -7 -8 -10 3 -3 13 0 23 8 15 10 15 14 3 24 -11 9 -16 9 -22 0z"/>
<path d="M7031 5100 c0 -8 4 -22 9 -30 12 -18 12 -2 0 25 -6 13 -9 15 -9 5z"/>
<path d="M7010 5046 c0 -9 5 -16 10 -16 6 0 10 4 10 9 0 6 -4 13 -10 16 -5 3
-10 -1 -10 -9z"/>
<path d="M7015 5010 c-3 -5 1 -10 9 -10 9 0 16 5 16 10 0 6 -4 10 -9 10 -6 0
-13 -4 -16 -10z"/>
<path d="M7110 4996 c0 -8 4 -17 9 -20 5 -4 7 3 4 14 -6 23 -13 26 -13 6z"/>
<path d="M7029 4978 c-8 -7 -12 -12 -10 -11 2 1 12 -2 22 -8 14 -7 19 -6 19 3
1 8 7 5 16 -7 8 -11 12 -25 10 -32 -3 -8 3 -13 16 -13 17 0 18 2 8 15 -7 9
-10 18 -6 22 3 3 6 1 6 -5 0 -7 6 -12 13 -12 6 0 0 11 -15 24 -15 13 -25 26
-22 28 2 3 -3 5 -11 5 -8 0 -15 -4 -15 -9 0 -4 -5 -8 -11 -8 -5 0 -7 5 -4 10
8 14 2 13 -16 -2z"/>
<path d="M7160 4936 c0 -2 8 -10 18 -17 15 -13 16 -12 3 4 -13 16 -21 21 -21
13z"/>
<path d="M848 720 c-19 -15 -25 -27 -21 -43 3 -12 7 -38 10 -57 3 -19 11 -42
19 -51 7 -8 14 -38 15 -67 1 -29 5 -52 9 -52 4 0 6 -98 5 -219 l-1 -219 59 -6
c151 -16 1326 -2 1263 15 -30 8 -66 36 -66 52 0 5 8 6 17 2 15 -5 15 -3 -2 13
-11 11 -23 18 -27 15 -5 -2 -8 2 -8 10 0 8 -14 29 -30 47 -17 18 -28 35 -26
38 11 10 -15 42 -34 42 -10 0 -21 4 -25 10 -3 5 -13 6 -22 3 -11 -4 -14 -3 -9
6 5 8 23 9 57 5 52 -7 62 2 29 26 -20 14 -29 37 -10 25 6 -3 10 -1 10 5 0 8 6
8 23 0 l22 -11 -22 20 c-13 10 -23 24 -23 30 0 6 -6 8 -13 5 -17 -6 -59 34
-51 48 5 7 1 9 -9 5 -11 -4 -27 4 -46 23 -31 32 -119 80 -144 80 -9 0 -19 5
-22 10 -3 6 -18 10 -33 10 -15 0 -36 6 -47 14 -11 7 -62 23 -113 35 -51 12
-105 27 -120 33 -15 6 -30 11 -34 10 -4 -1 -20 3 -35 9 -30 11 -36 13 -98 28
-76 19 -294 58 -365 65 -46 5 -60 2 -82 -14z"/>
</g>
</svg>
