<?xml version="1.0" standalone="no"?>
<!DOCTYPE svg PUBLIC "-//W3C//DTD SVG 20010904//EN"
 "http://www.w3.org/TR/2001/REC-SVG-20010904/DTD/svg10.dtd">
<svg version="1.0" xmlns="http://www.w3.org/2000/svg"
 width="900.000000pt" height="900.000000pt" viewBox="0 0 900.000000 900.000000"
 preserveAspectRatio="xMidYMid meet">
<metadata>
Created by potrace 1.14, written by Peter Selinger 2001-2017
</metadata>
<g transform="translate(0.000000,900.000000) scale(0.100000,-0.100000)"
fill="#000000" stroke="none">
<path d="M2666 6889 c-93 -35 -162 -110 -190 -205 -14 -45 -16 -276 -16 -1889
-1 -1269 2 -1841 10 -1849 5 -5 10 -20 10 -32 0 -29 64 -113 109 -143 20 -13
61 -32 91 -42 53 -18 127 -19 1706 -19 1483 0 1656 2 1704 16 68 20 108 47
157 106 72 88 67 -58 64 1978 -2 1314 -5 1846 -13 1875 -16 55 -70 135 -111
163 -19 12 -58 32 -88 42 -53 20 -88 20 -1719 19 -1600 -1 -1667 -2 -1714 -20z
m3451 -55 c51 -26 67 -44 40 -44 -7 0 -17 4 -22 8 -6 4 -32 16 -60 25 -46 15
-178 16 -1712 14 -1314 -2 -1665 -5 -1675 -14 -6 -7 -19 -13 -27 -13 -8 0 -25
-10 -38 -22 -13 -12 -26 -18 -30 -14 -9 9 40 52 77 68 14 6 40 14 59 17 19 3
777 5 1684 4 l1651 -3 53 -26z m-1214 -724 c21 -58 43 -114 47 -125 9 -20 51
-134 112 -305 17 -47 48 -132 69 -190 84 -232 121 -336 129 -365 4 -16 18 -55
30 -85 28 -73 63 -178 90 -270 12 -41 28 -91 35 -110 13 -33 49 -133 102 -285
13 -38 30 -86 37 -105 29 -78 38 -106 43 -130 3 -14 10 -30 15 -37 6 -7 14
-27 18 -45 5 -18 22 -71 39 -118 16 -47 61 -175 99 -285 39 -110 73 -207 77
-216 3 -10 2 -20 -4 -23 -16 -10 -2906 -7 -2909 3 -1 4 4 28 13 52 8 24 38
109 65 189 27 80 72 210 100 290 28 80 62 177 75 215 14 39 32 90 41 115 9 25
36 101 59 170 24 69 58 163 75 210 17 47 38 110 46 140 26 95 42 143 69 215
14 39 31 84 37 100 6 17 39 111 75 210 35 99 77 216 92 260 40 112 109 300
131 360 10 28 35 95 55 150 21 55 42 106 47 113 9 10 110 12 481 10 l471 -3
39 -105z m1067 -1000 c0 -5 -8 -10 -17 -10 -15 0 -16 2 -3 10 19 12 20 12 20
0z m-40 -30 c0 -5 -6 -10 -14 -10 -8 0 -18 5 -21 10 -3 6 3 10 14 10 12 0 21
-4 21 -10z m-3023 -6 c-3 -3 -12 -4 -19 -1 -8 3 -5 6 6 6 11 1 17 -2 13 -5z
m2967 -7 c-6 -17 -79 -49 -102 -45 -11 2 -4 9 23 21 22 10 47 22 55 27 22 13
30 12 24 -3z m-2904 -17 c0 -5 -8 -10 -17 -10 -15 0 -16 2 -3 10 19 12 20 12
20 0z m2730 0 c0 -5 -4 -10 -10 -10 -5 0 -10 5 -10 10 0 6 5 10 10 10 6 0 10
-4 10 -10z m-2260 -10 c0 -5 -5 -10 -11 -10 -5 0 -7 5 -4 10 3 6 8 10 11 10 2
0 4 -4 4 -10z m-428 -22 c-9 -9 -15 -9 -24 0 -9 9 -7 12 12 12 19 0 21 -3 12
-12z m218 -12 c0 -2 -7 -9 -15 -16 -12 -10 -15 -10 -15 4 0 9 7 16 15 16 8 0
15 -2 15 -4z m2260 -6 c0 -5 -5 -10 -11 -10 -5 0 -7 5 -4 10 3 6 8 10 11 10 2
0 4 -4 4 -10z m235 -15 c-22 -18 -37 -23 -57 -19 -17 3 -28 1 -28 -5 0 -12
-34 -31 -75 -42 -16 -4 -40 -11 -52 -14 -14 -5 -23 -3 -23 4 0 6 6 11 14 11 7
0 25 9 39 20 14 11 36 20 50 20 13 0 32 9 42 20 13 14 22 17 35 10 12 -6 23
-5 36 5 34 26 51 16 19 -10z m-2565 -21 c0 -11 -7 -13 -27 -8 -45 11 -50 18
-18 25 35 6 45 3 45 -17z m140 -49 c20 -24 -8 -27 -55 -6 -25 11 -45 17 -45
13 0 -3 -6 0 -12 6 -10 10 -10 15 1 21 16 10 94 -14 111 -34z m2175 -10 c0 -5
-10 -11 -22 -13 -16 -2 -23 2 -23 13 0 11 7 15 23 13 12 -2 22 -7 22 -13z
m-2099 -33 c-22 -5 -30 3 -21 18 5 8 11 7 22 -2 15 -12 14 -13 -1 -16z m2039
8 c3 -5 -1 -10 -9 -10 -9 0 -16 5 -16 10 0 6 4 10 9 10 6 0 13 -4 16 -10z"/>
<path d="M4377 5403 c-3 -5 -8 -24 -12 -43 -4 -19 -22 -91 -41 -160 -19 -69
-41 -152 -50 -185 -49 -181 -74 -268 -85 -288 -6 -10 -19 -49 -30 -85 -10 -37
-24 -83 -31 -102 -6 -19 -14 -48 -19 -65 -4 -16 -23 -85 -43 -153 -20 -68 -36
-130 -36 -138 0 -12 55 -14 354 -14 195 0 357 4 360 9 3 4 -4 37 -15 72 -11
35 -26 87 -34 114 -8 28 -29 97 -46 155 -17 58 -35 121 -41 140 -5 19 -16 49
-23 65 -7 17 -21 59 -30 95 -9 36 -23 83 -30 105 -7 22 -20 67 -29 100 -9 33
-31 116 -50 185 -19 69 -37 140 -41 157 -7 33 -20 50 -28 36z m-15 -535 c-6
-6 -15 -8 -19 -4 -4 4 -1 11 7 16 19 12 27 3 12 -12z m125 -40 c-3 -8 -6 -5
-6 6 -1 11 2 17 5 13 3 -3 4 -12 1 -19z m-201 -25 c-10 -10 -19 5 -10 18 6 11
8 11 12 0 2 -7 1 -15 -2 -18z m54 6 c0 -5 -4 -9 -10 -9 -5 0 -10 7 -10 16 0 8
5 12 10 9 6 -3 10 -10 10 -16z m-8 -52 c26 6 52 6 60 2 7 -5 24 -7 38 -4 14 3
32 0 40 -5 28 -19 -8 -27 -117 -25 -109 1 -129 9 -101 38 11 12 14 12 24 -1 8
-12 19 -13 56 -5z m198 -13 c0 -8 -7 -14 -15 -14 -15 0 -21 21 -9 33 10 9 24
-2 24 -19z"/>
<path d="M6640 6682 c-25 -2 -49 -7 -53 -11 -4 -5 -12 -35 -17 -67 -5 -32 -23
-138 -39 -234 -59 -337 -65 -381 -51 -390 22 -14 113 -4 126 14 6 9 17 56 23
104 6 48 17 110 24 137 l12 50 124 3 123 3 -5 -43 c-2 -24 -12 -92 -22 -151
-15 -88 -16 -110 -5 -117 18 -11 109 -5 123 9 6 6 16 50 23 98 7 49 29 183 49
298 51 291 51 292 30 297 -10 1 -42 1 -71 0 -61 -4 -54 7 -74 -127 -20 -139
-4 -125 -146 -125 l-124 0 0 28 c0 15 4 41 9 59 5 18 12 61 16 96 8 73 6 75
-75 69z"/>
<path d="M7310 6673 c-12 -8 -19 -33 -24 -79 -4 -37 -11 -85 -16 -108 -5 -23
-16 -86 -25 -141 -9 -55 -23 -131 -30 -170 -24 -122 -29 -195 -13 -196 75 -5
341 4 368 13 81 25 172 119 209 218 21 57 41 171 41 236 0 113 -43 189 -124
219 -54 20 -360 26 -386 8z m326 -154 c39 -37 48 -81 34 -168 -20 -117 -63
-189 -129 -217 -40 -17 -191 -19 -191 -3 0 5 4 29 9 52 5 23 17 85 26 137 28
163 37 205 46 216 5 6 43 9 95 8 73 -2 90 -6 110 -25z"/>
<path d="M2572 2610 c-21 -10 -50 -35 -67 -60 l-30 -43 0 -367 0 -367 29 -42
c58 -84 -129 -76 1881 -76 1685 0 1792 1 1822 17 33 18 74 67 87 103 11 31 7
671 -5 726 -9 40 -19 56 -56 87 l-46 37 -1789 1 c-1646 0 -1792 -1 -1826 -16z
m558 -171 c36 -5 68 -13 72 -17 11 -11 -3 -110 -16 -115 -6 -2 -53 0 -105 5
-105 10 -131 0 -131 -52 0 -37 20 -51 102 -72 132 -33 168 -73 168 -181 0
-102 -28 -152 -99 -176 -50 -16 -208 -14 -270 5 l-53 15 7 47 c9 60 16 67 57
53 18 -6 68 -12 112 -13 87 -2 106 9 106 62 0 39 -27 57 -115 79 -133 34 -168
77 -163 197 3 59 8 77 31 107 46 61 149 80 297 56z m1079 -5 c65 -19 127 -73
141 -122 13 -49 13 -307 -1 -357 -15 -53 -73 -110 -129 -125 -27 -8 -79 -10
-132 -7 -74 4 -92 8 -129 33 -73 50 -79 72 -79 278 0 163 2 182 21 212 54 88
183 125 308 88z m1701 3 l55 -12 3 -46 c4 -56 -17 -83 -57 -75 -14 3 -56 8
-92 12 -60 5 -69 4 -88 -15 -47 -47 -20 -86 76 -111 89 -23 145 -52 161 -82
16 -30 22 -131 10 -179 -13 -49 -50 -86 -101 -100 -53 -14 -242 -7 -279 11
-30 14 -31 18 -28 65 3 46 21 60 61 46 17 -6 67 -11 110 -11 73 0 80 2 95 26
16 23 16 28 1 59 -14 30 -23 35 -88 49 -147 34 -179 68 -179 193 0 101 26 145
98 167 56 17 166 19 242 3z m-2237 -8 c93 -25 135 -104 123 -230 -13 -142 -69
-189 -227 -189 -47 0 -81 -4 -85 -11 -4 -7 -6 -44 -5 -84 2 -83 -1 -87 -68
-90 -81 -4 -76 -22 -80 304 -1 160 0 295 4 301 8 13 288 13 338 -1z m1187 -15
c65 -37 80 -73 80 -186 0 -107 -11 -141 -55 -176 -14 -11 -25 -23 -25 -26 0
-3 29 -46 65 -95 36 -48 65 -93 65 -98 0 -6 -34 -9 -77 -9 l-78 1 -67 90 c-67
90 -96 111 -130 93 -15 -7 -18 -23 -18 -93 0 -47 -3 -86 -7 -86 -43 -7 -115
-4 -122 5 -12 14 -18 576 -7 594 6 11 44 13 175 10 146 -3 170 -5 201 -24z
m628 -38 c2 -36 -1 -62 -8 -66 -6 -4 -40 -5 -75 -3 -35 2 -66 0 -68 -5 -3 -4
-6 -106 -8 -227 -1 -121 -6 -227 -10 -237 -6 -12 -22 -16 -56 -16 -87 1 -82
-12 -85 251 l-3 232 -73 1 c-40 1 -75 4 -78 7 -11 11 -13 102 -2 114 8 10 62
13 237 11 l226 -3 3 -59z"/>
<path d="M4043 2286 c-17 -21 -20 -44 -22 -160 -2 -133 -2 -136 23 -161 33
-33 101 -35 140 -4 26 20 26 21 26 165 0 174 -5 184 -94 184 -46 0 -58 -4 -73
-24z"/>
<path d="M3484 2297 c-3 -8 -4 -47 -2 -88 l3 -74 62 -3 c80 -4 103 15 103 86
0 69 -26 92 -103 92 -39 0 -59 -4 -63 -13z"/>
<path d="M4632 2296 c-10 -17 -8 -147 3 -155 5 -4 28 -6 50 -5 22 2 50 3 62 3
36 1 52 26 51 81 -2 70 -24 89 -101 87 -32 -1 -61 -6 -65 -11z"/>
</g>
</svg>
