<?xml version="1.0" standalone="no"?>
<!DOCTYPE svg PUBLIC "-//W3C//DTD SVG 20010904//EN"
 "http://www.w3.org/TR/2001/REC-SVG-20010904/DTD/svg10.dtd">
<svg version="1.0" xmlns="http://www.w3.org/2000/svg"
 width="512.000000pt" height="512.000000pt" viewBox="0 0 512.000000 512.000000"
 preserveAspectRatio="xMidYMid meet">
<metadata>
Created by potrace 1.14, written by Peter Selinger 2001-2017
</metadata>
<g transform="translate(0.000000,512.000000) scale(0.100000,-0.100000)"
fill="#000000" stroke="none">
<path d="M0 2560 l0 -2560 2560 0 2560 0 0 2560 0 2560 -2560 0 -2560 0 0
-2560z m3610 1790 c34 -19 52 -38 73 -79 26 -53 27 -60 27 -210 0 -175 -8
-217 -51 -265 -57 -66 -80 -70 -406 -74 l-293 -4 0 -899 c0 -974 2 -938 -53
-998 -50 -55 -83 -61 -327 -61 -198 0 -230 3 -265 19 -48 22 -78 53 -102 106
-17 37 -18 99 -21 937 l-3 896 -287 4 c-308 4 -332 7 -391 61 -52 48 -61 88
-61 273 0 159 2 174 23 214 12 24 34 52 48 62 65 48 40 47 1074 45 l970 -2 45
-25z m-1559 -799 l39 -39 0 -244 0 -245 -52 -34 c-120 -77 -247 -228 -313
-373 -59 -127 -79 -222 -79 -381 0 -159 20 -254 79 -381 130 -283 366 -461
698 -529 17 -3 27 -12 27 -23 0 -9 -11 -132 -25 -272 -14 -140 -25 -263 -25
-272 0 -19 3 -19 -145 9 -431 82 -837 395 -1035 798 -66 136 -100 233 -132
379 -32 145 -32 435 0 582 67 312 218 584 439 794 158 151 350 269 437 270 43
0 53 -4 87 -39z m1224 3 c186 -99 409 -301 528 -479 112 -169 185 -341 229
-542 18 -82 22 -131 22 -298 0 -216 -13 -303 -69 -472 -54 -159 -202 -430
-230 -420 -25 10 -455 330 -455 339 0 5 14 30 31 54 120 175 173 433 135 652
-39 222 -153 417 -331 562 l-76 62 3 237 c3 258 7 274 64 311 40 27 90 25 149
-6z m59 -2243 c108 -115 196 -213 196 -218 0 -10 -135 -110 -198 -145 l-48
-28 -145 242 c-79 133 -145 246 -146 252 -2 8 97 80 143 105 1 1 90 -93 198
-208z"/>
</g>
</svg>
