<?xml version="1.0" standalone="no"?>
<!DOCTYPE svg PUBLIC "-//W3C//DTD SVG 20010904//EN"
 "http://www.w3.org/TR/2001/REC-SVG-20010904/DTD/svg10.dtd">
<svg version="1.0" xmlns="http://www.w3.org/2000/svg"
 width="1000.000000pt" height="1000.000000pt" viewBox="0 0 1000.000000 1000.000000"
 preserveAspectRatio="xMidYMid meet">
<metadata>
Created by potrace 1.14, written by Peter Selinger 2001-2017
</metadata>
<g transform="translate(0.000000,1000.000000) scale(0.100000,-0.100000)"
fill="#000000" stroke="none">
<path d="M3215 7203 c-95 -13 -242 -73 -332 -135 -109 -74 -223 -219 -280
-353 -54 -128 -53 -90 -52 -1597 l1 -1393 24 95 c64 254 114 397 206 590 244
516 643 915 1183 1183 372 185 752 295 1239 358 295 39 969 35 1184 -6 42 -8
77 -13 79 -12 2 2 -18 17 -45 34 -26 17 -85 55 -132 85 -104 67 -489 298 -496
298 -3 0 -38 19 -77 42 -113 66 -372 192 -482 234 -99 39 -102 39 -235 38
-114 0 -152 -5 -245 -28 -172 -44 -385 -136 -557 -241 -32 -19 -58 -33 -58
-30 0 4 107 169 305 470 178 272 226 346 231 360 5 13 -82 15 -712 14 -396 -1
-732 -4 -749 -6z"/>
<path d="M5425 7174 c86 -61 633 -426 775 -516 160 -101 489 -301 685 -416 77
-46 147 -87 155 -92 58 -36 381 -221 394 -226 15 -6 16 21 16 289 0 317 -8
392 -52 498 -105 251 -317 429 -580 483 -66 14 -175 16 -760 16 l-683 0 50
-36z"/>
<path d="M5815 5613 c-543 -36 -1050 -193 -1485 -461 -297 -182 -573 -453
-764 -749 -174 -269 -295 -632 -327 -977 -21 -227 2 -521 47 -608 l15 -28
1762 2 1762 3 70 24 c211 71 378 213 472 402 82 166 77 83 80 1191 l4 987 -68
20 c-221 67 -554 138 -786 166 -251 30 -574 42 -782 28z m-120 -1084 c304
-116 440 -455 300 -745 -32 -65 -125 -168 -191 -210 -286 -183 -665 -57 -792
263 -23 60 -26 82 -27 188 0 116 1 123 35 200 74 166 185 265 355 317 84 25
237 19 320 -13z"/>
</g>
</svg>
