<?xml version="1.0" standalone="no"?>
<!DOCTYPE svg PUBLIC "-//W3C//DTD SVG 20010904//EN"
 "http://www.w3.org/TR/2001/REC-SVG-20010904/DTD/svg10.dtd">
<svg version="1.0" xmlns="http://www.w3.org/2000/svg"
 width="800.000000pt" height="800.000000pt" viewBox="0 0 800.000000 800.000000"
 preserveAspectRatio="xMidYMid meet">
<metadata>
Created by potrace 1.14, written by Peter Selinger 2001-2017
</metadata>
<g transform="translate(0.000000,800.000000) scale(0.100000,-0.100000)"
fill="#000000" stroke="none">
<path d="M3884 6434 c-3 -10 -9 -28 -14 -39 -14 -34 -26 -73 -106 -320 -42
-132 -101 -314 -130 -404 -30 -90 -54 -172 -54 -182 0 -10 -4 -21 -10 -24 -5
-3 -10 -16 -10 -29 0 -12 -4 -26 -8 -31 -5 -6 -14 -30 -21 -55 -8 -25 -25 -80
-38 -124 l-25 -78 -687 3 c-596 4 -686 2 -686 -11 0 -8 27 -33 60 -57 33 -24
95 -69 139 -101 43 -31 115 -83 160 -115 44 -31 92 -66 106 -77 28 -21 152
-113 280 -205 45 -33 105 -79 132 -102 39 -35 44 -42 26 -40 -13 1 -26 6 -29
11 -4 5 -38 -9 -75 -30 -38 -21 -73 -41 -79 -43 -5 -2 -48 -29 -95 -60 -47
-31 -89 -58 -95 -60 -5 -2 -28 -16 -50 -31 -41 -27 -127 -83 -245 -158 -36
-23 -99 -52 -140 -66 -134 -43 -473 -162 -725 -254 -215 -78 -308 -119 -301
-131 3 -5 24 -11 46 -15 31 -5 40 -11 40 -26 0 -13 7 -20 20 -20 39 0 19 -19
-60 -59 -87 -43 -130 -70 -115 -72 6 -1 23 -3 38 -5 16 -1 40 -10 54 -19 37
-25 115 -19 243 19 81 24 130 31 130 17 0 -26 103 2 270 73 46 20 88 36 92 36
20 0 5 -18 -33 -41 -23 -13 -52 -31 -64 -39 -13 -8 -62 -39 -109 -69 -47 -29
-91 -60 -97 -67 -6 -8 -16 -14 -21 -14 -5 0 -50 -28 -101 -62 l-92 -63 47 -5
c31 -3 45 -9 40 -16 -4 -6 -43 -36 -87 -67 -44 -32 -127 -91 -185 -132 -58
-41 -113 -80 -123 -87 -27 -19 -41 -48 -29 -60 7 -7 38 6 94 40 46 27 97 58
115 68 17 11 107 65 201 122 111 68 181 104 204 107 20 1 62 20 94 41 68 43
319 178 352 188 16 6 22 3 22 -8 0 -9 3 -15 8 -14 4 1 21 -4 37 -11 17 -7 44
-15 62 -18 19 -3 33 -12 36 -24 3 -13 14 -19 31 -19 19 0 26 -5 26 -20 0 -19
20 -27 34 -13 3 4 15 8 26 10 11 1 50 23 86 48 42 29 70 43 76 37 6 -6 34 7
76 36 37 25 69 49 72 52 3 3 30 24 60 47 30 23 78 63 105 88 28 25 58 50 68
56 17 9 18 8 12 -13 -3 -12 -10 -32 -15 -43 -4 -11 -18 -54 -30 -95 -12 -41
-49 -157 -82 -258 -70 -212 -70 -244 -2 -184 18 15 73 56 123 92 51 36 120 86
154 111 162 119 425 310 501 364 24 17 56 40 72 53 16 12 69 51 118 87 97 70
100 70 155 19 14 -13 31 -24 38 -24 6 0 13 -4 15 -8 2 -4 35 -30 73 -57 39
-27 104 -74 145 -105 41 -31 174 -128 295 -216 232 -167 299 -216 328 -240 9
-8 22 -14 27 -14 6 0 10 -4 10 -8 0 -4 12 -15 28 -24 15 -9 40 -28 56 -42 40
-34 62 -15 36 32 -10 17 -42 114 -165 497 -37 116 -78 242 -92 280 -14 39 -27
79 -30 90 -2 11 -8 29 -13 40 -4 11 -29 88 -56 170 -26 83 -52 156 -58 163
-12 16 -13 14 154 134 97 69 361 261 738 536 48 35 115 82 149 105 113 76 144
72 -627 72 l-685 0 -37 115 c-21 63 -43 131 -49 150 -6 19 -14 44 -19 55 -4
11 -20 61 -35 110 -15 50 -31 99 -35 110 -9 23 -74 230 -126 395 -56 181 -113
343 -124 354 -6 6 -12 3 -16 -10z m119 -994 c57 -173 116 -353 131 -400 15
-47 32 -91 38 -97 8 -10 113 -13 439 -15 l430 -3 -118 -83 c-65 -45 -125 -87
-133 -92 -8 -6 -91 -65 -185 -131 -93 -66 -194 -137 -222 -156 -59 -40 -64
-55 -37 -119 9 -22 22 -59 29 -84 7 -25 41 -126 75 -225 117 -338 148 -430
146 -432 -1 -2 -72 49 -371 265 -49 36 -108 78 -130 94 -22 16 -71 51 -109 78
-38 28 -74 50 -81 50 -10 0 -265 -173 -320 -218 -5 -4 -39 -28 -75 -52 -36
-25 -66 -48 -68 -52 -2 -5 -9 -8 -15 -8 -7 0 -23 -10 -37 -23 -14 -13 -54 -43
-89 -67 -35 -25 -73 -52 -84 -60 -20 -14 -20 -14 -13 5 4 11 23 67 43 125 45
130 63 162 55 94 -5 -45 -4 -46 19 -39 13 4 27 13 31 19 5 6 8 0 9 -14 0 -14
3 -19 6 -12 2 6 11 12 20 12 21 0 61 38 510 486 216 215 393 398 393 407 0 25
56 33 -670 -93 -335 -58 -337 -58 -382 -24 -20 16 -70 53 -110 82 -151 111
-343 254 -351 261 -4 4 183 8 415 10 232 1 426 4 430 7 4 3 23 57 43 122 20
64 47 149 59 187 13 39 40 124 60 190 20 66 40 127 45 135 4 8 20 54 36 102
16 48 30 86 31 85 1 -1 49 -144 107 -317z m192 -796 c-16 -14 -54 -37 -82 -51
-29 -14 -53 -30 -53 -35 0 -4 -6 -8 -14 -8 -14 0 -95 -43 -173 -93 -24 -15
-46 -27 -51 -27 -4 0 -34 -18 -67 -40 -33 -22 -65 -40 -72 -40 -6 0 -24 -11
-40 -24 -37 -32 -123 -77 -133 -71 -4 3 -10 -1 -13 -9 -13 -33 -91 -22 -79 12
5 17 22 15 22 -2 0 -10 7 -12 23 -9 38 10 76 53 46 53 -5 0 -7 -4 -4 -10 3 -5
-1 -10 -9 -10 -21 0 -31 21 -15 31 9 7 5 7 -13 3 -32 -7 -38 10 -10 25 13 7
23 6 30 -1 9 -9 12 -8 12 5 0 9 -7 17 -16 17 -11 0 -14 5 -10 17 4 9 1 20 -6
25 -23 14 -30 9 -24 -17 6 -23 4 -25 -18 -19 -15 3 -34 -1 -50 -12 -15 -9 -29
-14 -32 -11 -3 3 -30 -8 -61 -24 -30 -16 -62 -29 -71 -29 -9 0 -25 -8 -36 -19
-23 -20 -106 -44 -106 -30 0 5 5 9 11 9 6 0 29 16 52 35 23 20 53 38 67 42 14
3 41 14 62 24 20 10 55 21 77 25 23 4 44 11 47 15 3 5 12 9 21 9 9 0 24 7 34
15 15 14 18 14 33 0 14 -15 23 -15 69 -5 48 12 72 21 182 70 154 68 459 188
480 189 17 0 16 -3 -10 -25z m-1096 -258 c12 -14 10 -16 -9 -16 -27 0 -60 26
-60 47 0 11 5 11 28 -1 16 -8 34 -22 41 -30z m-57 -21 c-2 -5 -9 -9 -14 -7 -6
2 -30 -6 -54 -18 -49 -22 -64 -25 -64 -10 0 20 64 51 100 48 19 -2 33 -7 32
-13z m-188 -140 c-25 -19 -35 -19 -28 0 4 8 16 15 27 15 20 0 20 0 1 -15z
m-104 -79 c0 -2 -7 -7 -16 -10 -8 -3 -12 -2 -9 4 6 10 25 14 25 6z"/>
<path d="M5926 5126 c-8 -6 -16 -33 -20 -61 -5 -48 -9 -69 -37 -210 -7 -33
-13 -82 -13 -108 l-1 -48 208 1 c114 0 207 -3 207 -7 0 -10 -37 -231 -50 -298
-5 -27 -14 -78 -20 -112 -5 -35 -15 -91 -20 -125 -6 -35 -15 -85 -20 -113 -6
-27 -17 -93 -25 -145 -8 -52 -31 -192 -50 -310 -20 -118 -40 -242 -45 -275 -8
-55 -15 -97 -38 -227 -5 -26 -6 -52 -2 -58 4 -7 90 -9 260 -8 l254 3 8 45 c5
25 13 72 18 105 5 33 14 87 20 120 6 33 20 114 31 180 11 66 24 145 29 175 26
158 40 239 45 275 3 22 10 63 15 90 20 111 33 188 100 593 38 232 74 441 80
463 6 23 9 47 6 55 -4 11 -84 13 -465 12 -323 0 -465 -4 -475 -12z"/>
<path d="M3004 2921 c-52 -13 -108 -50 -133 -87 -19 -28 -25 -49 -25 -98 -1
-80 23 -118 112 -172 79 -48 102 -69 102 -91 -1 -49 -63 -70 -143 -49 -30 8
-64 19 -75 25 -30 16 -43 -8 -45 -80 l-2 -63 60 -19 c45 -14 79 -17 135 -14
136 9 210 64 236 176 23 99 -11 155 -142 232 -57 34 -74 49 -74 66 0 45 75 56
168 24 65 -22 74 -14 76 66 1 52 -1 58 -25 70 -32 16 -183 25 -225 14z"/>
<path d="M3341 2897 c-5 -13 -12 -45 -16 -70 l-7 -47 91 0 c66 0 91 -3 91 -12
0 -7 -9 -65 -21 -128 -47 -265 -59 -342 -53 -352 9 -13 140 -9 152 5 6 7 18
59 26 117 9 58 21 132 26 165 6 33 15 89 21 125 5 35 15 68 22 72 6 5 45 8 85
7 40 -1 78 3 83 8 5 5 11 36 12 69 l2 59 -253 3 -252 2 -9 -23z"/>
<path d="M4042 2893 c-11 -16 -38 -62 -62 -103 -189 -334 -270 -485 -265 -498
3 -9 25 -12 82 -10 l77 3 37 70 38 70 83 3 c122 4 122 4 139 -75 l14 -68 75
-1 c41 0 80 3 86 8 8 5 4 35 -11 100 -39 163 -80 347 -106 466 -5 24 -11 48
-14 53 -4 5 -39 9 -80 9 -69 0 -75 -2 -93 -27z m70 -234 c4 -24 10 -54 13 -66
5 -22 2 -23 -45 -23 -27 0 -50 3 -50 8 0 19 56 131 65 128 5 -1 13 -22 17 -47z"/>
<path d="M4513 2908 c-8 -11 -21 -79 -54 -283 -4 -27 -12 -81 -19 -120 -25
-162 -31 -207 -26 -212 5 -5 101 -7 142 -4 7 1 14 18 17 39 19 128 36 202 46
202 4 0 38 -54 75 -120 l68 -120 69 -1 c38 -1 75 -2 81 -3 19 -1 22 33 5 52
-19 23 -129 203 -125 206 2 2 18 8 36 16 46 18 89 72 107 135 15 52 15 58 -1
101 -20 53 -65 93 -126 111 -58 17 -282 18 -295 1z m221 -132 c19 -8 37 -19
41 -26 9 -15 -11 -63 -34 -77 -20 -12 -97 -21 -106 -11 -5 5 8 83 20 116 6 16
38 15 79 -2z"/>
<path d="M2347 2190 c-77 -30 -116 -88 -117 -173 0 -91 26 -128 137 -188 82
-45 103 -92 52 -119 -30 -17 -121 -11 -168 10 -24 11 -46 20 -50 20 -9 0 -31
-83 -31 -118 0 -28 8 -33 91 -60 54 -18 147 -14 209 8 121 43 183 177 130 280
-22 43 -59 75 -137 115 -28 14 -57 33 -63 40 -19 23 -7 49 29 61 32 10 88 3
168 -21 26 -8 35 9 47 82 7 48 3 52 -64 70 -68 18 -177 15 -233 -7z"/>
<path d="M3450 2188 c-75 -29 -159 -113 -191 -193 -35 -87 -34 -221 1 -289 38
-74 106 -123 207 -147 100 -24 243 22 322 103 104 106 135 296 66 413 -27 47
-107 114 -137 115 -9 0 -20 5 -23 10 -3 6 -47 10 -98 9 -69 0 -106 -5 -147
-21z m197 -148 c52 -31 67 -64 67 -139 -1 -75 -12 -102 -60 -147 -54 -51 -138
-59 -196 -19 -76 52 -74 198 5 277 48 48 131 61 184 28z"/>
<path d="M4030 2193 c-10 -7 -20 -32 -24 -60 -4 -26 -11 -70 -15 -98 -20 -113
-45 -274 -67 -423 l-7 -43 79 3 79 3 7 40 c3 22 11 71 17 109 12 71 17 86 30
86 7 0 82 -127 121 -205 15 -30 16 -30 103 -33 101 -3 103 -1 56 74 -58 91
-110 177 -107 178 2 1 15 8 29 15 70 35 119 108 119 179 0 103 -63 164 -183
178 -100 11 -219 9 -237 -3z m231 -143 c27 -15 24 -56 -6 -85 -18 -19 -35 -25
-70 -25 -51 0 -52 3 -33 75 12 43 13 45 51 45 21 0 47 -5 58 -10z"/>
<path d="M4736 2200 l-209 -5 -14 -54 c-7 -30 -11 -61 -9 -68 4 -9 31 -13 97
-13 83 0 90 -2 84 -17 -4 -10 -11 -43 -16 -73 -6 -30 -14 -77 -19 -105 -4 -27
-13 -77 -19 -110 -26 -150 -29 -170 -24 -177 2 -5 40 -8 83 -8 l79 0 6 33 c3
17 16 104 30 192 14 88 30 184 36 213 l10 52 84 0 c70 0 86 3 93 18 12 23 21
97 13 109 -10 16 -79 18 -305 13z"/>
<path d="M5200 2193 c-42 -18 -86 -58 -106 -95 -8 -15 -14 -56 -14 -92 0 -59
3 -69 31 -100 17 -20 56 -50 87 -67 77 -44 92 -58 92 -89 0 -38 -35 -54 -107
-48 -32 2 -74 12 -93 21 -32 17 -36 17 -47 1 -20 -27 -28 -125 -12 -135 56
-36 189 -49 266 -26 76 23 128 68 153 134 41 108 11 178 -103 245 -90 52 -107
66 -107 90 0 42 57 46 202 12 32 -7 41 8 51 87 l6 47 -42 16 c-55 21 -208 21
-257 -1z"/>
<path d="M2766 2183 c-5 -16 -51 -267 -77 -423 -6 -36 -15 -81 -21 -100 -10
-38 -8 -91 5 -90 4 0 39 0 77 0 48 0 72 4 75 13 2 6 11 55 20 108 l16 96 77 6
c134 10 207 57 237 152 32 102 2 185 -82 226 -42 21 -65 24 -185 27 -125 4
-137 2 -142 -15z m259 -163 c12 -55 -38 -100 -111 -100 -35 0 -36 1 -30 28 4
15 9 46 13 69 5 38 8 42 37 45 51 5 84 -10 91 -42z"/>
</g>
</svg>
