<?xml version="1.0" standalone="no"?>
<!DOCTYPE svg PUBLIC "-//W3C//DTD SVG 20010904//EN"
 "http://www.w3.org/TR/2001/REC-SVG-20010904/DTD/svg10.dtd">
<svg version="1.0" xmlns="http://www.w3.org/2000/svg"
 width="600.000000pt" height="600.000000pt" viewBox="0 0 600.000000 600.000000"
 preserveAspectRatio="xMidYMid meet">
<metadata>
Created by potrace 1.14, written by Peter Selinger 2001-2017
</metadata>
<g transform="translate(0.000000,600.000000) scale(0.100000,-0.100000)"
fill="#000000" stroke="none">
<path d="M40 5375 l0 -165 496 -2 496 -3 20 27 c18 26 18 27 1 21 -12 -5 -7 5
15 30 25 29 32 47 32 78 0 53 38 92 110 113 58 17 100 41 100 56 0 6 -228 10
-635 10 l-635 0 0 -165z m811 28 c48 -34 90 -63 93 -63 3 0 6 32 6 70 l0 70
30 0 30 0 0 -99 c0 -75 -4 -101 -15 -111 -20 -17 -29 -12 -139 69 -53 39 -98
71 -101 71 -3 0 -5 -34 -5 -76 l0 -76 -153 3 c-199 5 -207 10 -207 109 l0 70
-55 0 -55 0 0 -91 0 -90 -27 3 c-28 3 -28 3 -31 91 l-3 87 -59 0 c-53 0 -60 2
-60 20 0 19 7 20 250 20 241 0 250 -1 250 -20 0 -17 -8 -19 -72 -22 -67 -3
-73 -5 -76 -25 -3 -23 -1 -23 97 -23 94 0 101 -1 101 -20 0 -19 -7 -20 -100
-20 -93 0 -100 -1 -100 -20 0 -19 7 -20 120 -20 l120 0 0 74 c0 54 4 79 16 90
19 20 28 15 145 -71z"/>
<path d="M1391 5496 c-7 -27 -21 -53 -38 -66 -23 -18 -27 -28 -24 -63 3 -55
-28 -102 -88 -134 -25 -13 -46 -24 -47 -26 -1 -1 420 -1 937 1 l939 2 0 165 0
165 -834 0 -834 0 -11 -44z m1242 -58 c15 -18 18 -35 15 -81 -2 -31 -10 -63
-17 -70 -8 -8 -47 -12 -116 -12 -129 0 -138 6 -136 95 0 34 5 68 12 76 15 18
51 23 144 19 69 -3 82 -7 98 -27z m113 10 c16 -13 61 -49 99 -81 l70 -59 3 76
c3 68 5 76 22 76 18 0 20 -7 20 -95 l0 -95 -31 0 c-24 0 -51 16 -115 70 l-83
70 -3 -67 c-2 -53 -6 -68 -18 -68 -12 0 -16 17 -18 84 -4 119 2 129 54 89z
m-1127 -78 c28 -49 51 -92 51 -95 0 -12 -51 -3 -56 10 -5 11 -23 15 -74 15
-51 0 -69 -4 -74 -15 -5 -15 -37 -21 -48 -9 -3 3 17 45 44 95 44 79 53 89 78
89 25 0 34 -10 79 -90z m335 74 c36 -36 3 -60 -38 -29 -27 20 -149 21 -165 1
-7 -8 -11 -34 -9 -58 l3 -43 84 -3 c68 -2 86 0 93 13 13 22 48 19 48 -4 0 -37
-37 -51 -139 -51 -121 0 -131 7 -131 100 0 38 5 71 12 78 19 19 222 16 242 -4z
m294 4 c-3 -7 -27 -15 -54 -18 l-49 -5 0 -75 c0 -62 -3 -75 -17 -78 -15 -3
-18 7 -20 75 l-3 78 -52 3 c-38 2 -53 7 -53 18 0 11 23 14 126 14 96 0 125 -3
122 -12z m82 -83 c0 -88 -1 -95 -20 -95 -19 0 -20 7 -20 95 0 88 1 95 20 95
19 0 20 -7 20 -95z"/>
<path d="M2418 5419 c-2 -6 -1 -32 2 -58 l5 -46 84 -3 c93 -3 101 1 101 55 0
61 -4 63 -100 63 -56 0 -90 -4 -92 -11z"/>
<path d="M1515 5380 c-21 -40 -20 -40 25 -40 46 0 46 1 23 41 -22 36 -29 36
-48 -1z"/>
<path d="M3250 5365 l0 -175 533 0 532 1 18 24 c17 24 17 25 0 25 -15 1 -14 4
8 23 35 29 49 58 49 102 0 46 29 76 95 99 28 10 65 25 84 34 85 42 77 42 -638
42 l-681 0 0 -175z m595 90 c0 -18 -7 -20 -70 -20 -75 -1 -95 -7 -95 -31 0
-11 21 -14 110 -14 l110 0 0 -25 0 -25 -104 0 c-100 0 -132 -9 -110 -30 5 -5
65 -10 134 -12 l125 -3 5 90 c5 87 6 90 30 93 18 2 53 -18 128 -73 56 -41 104
-75 107 -75 3 0 5 34 5 76 l0 75 33 -3 c17 -2 31 -6 30 -10 -2 -5 -3 -55 -3
-113 l0 -105 -25 0 c-16 0 -62 27 -121 71 -52 38 -102 73 -110 76 -11 4 -14
-9 -14 -72 l0 -76 -174 3 c-215 4 -216 4 -216 112 l0 72 -55 0 -55 -1 0 -92 0
-93 -35 0 -34 0 -3 93 -3 92 -60 0 c-55 0 -60 2 -63 23 l-3 22 268 -2 c260 -3
268 -4 268 -23z"/>
<path d="M4700 5520 c0 -37 -28 -90 -54 -101 -20 -10 -24 -17 -20 -36 16 -61
-25 -136 -95 -173 -36 -19 -33 -19 637 -21 369 0 683 -1 697 -1 59 0 55 -12
55 177 l0 175 -610 0 c-607 0 -610 0 -610 -20z m299 -76 c12 -15 21 -31 21
-35 0 -15 -39 -10 -48 6 -7 13 -26 15 -103 13 l-94 -3 0 -60 0 -60 94 0 c67 0
96 4 99 13 3 9 -13 12 -57 12 -54 0 -61 2 -61 20 0 18 7 20 79 20 46 0 83 -5
86 -11 4 -6 4 -25 1 -43 -9 -45 -38 -56 -149 -56 -127 0 -137 8 -137 105 0 99
9 105 146 105 99 0 103 -1 123 -26z m315 5 c23 -18 26 -27 26 -82 0 -34 -4
-67 -8 -74 -14 -22 -63 -33 -150 -33 -121 0 -132 8 -132 105 0 98 9 105 141
105 82 0 100 -3 123 -21z m96 -64 l0 -85 90 0 c83 0 90 -1 90 -20 0 -19 -7
-20 -110 -20 l-110 0 0 105 c0 98 1 105 20 105 18 0 20 -7 20 -85z m438 68
c-3 -15 -17 -18 -91 -21 -85 -3 -87 -3 -87 -27 0 -25 1 -25 86 -25 76 0 85 -2
82 -17 -3 -15 -15 -18 -83 -18 l-80 0 -5 -40 c-4 -32 -9 -40 -25 -40 -19 0
-20 8 -23 103 l-3 102 116 0 c106 0 116 -2 113 -17z"/>
<path d="M5094 5416 c-3 -7 -4 -35 -2 -62 l3 -49 90 -3 c101 -3 115 5 115 64
0 62 -3 64 -106 64 -71 0 -96 -3 -100 -14z"/>
<path d="M1278 5372 c-10 -16 -43 -43 -77 -61 -79 -42 -121 -77 -137 -118 -22
-50 -18 -74 6 -36 23 39 52 58 108 73 78 20 133 91 120 155 -2 13 -7 10 -20
-13z"/>
<path d="M4573 5362 c-11 -15 -48 -43 -83 -61 -107 -57 -160 -118 -160 -183 0
-21 2 -20 16 7 20 39 61 72 99 81 87 19 145 72 152 138 3 25 4 46 1 46 -2 0
-14 -13 -25 -28z"/>
<path d="M52 5068 c-13 -13 -16 -47 -6 -72 4 -11 18 -16 43 -15 35 1 35 2 7 8
-42 9 -46 31 -6 31 19 0 29 4 25 10 -4 6 -15 10 -25 8 -11 -2 -20 2 -22 7 -2
6 9 11 25 13 15 2 27 8 27 13 0 13 -54 11 -68 -3z"/>
<path d="M317 5060 c-8 -32 7 -75 29 -77 10 -2 13 0 7 3 -16 7 -17 36 -1 52 9
9 9 12 0 12 -7 0 -12 7 -12 15 0 22 -17 18 -23 -5z"/>
<path d="M668 5063 c-8 -29 2 -81 16 -86 9 -4 12 8 11 40 -2 48 -19 77 -27 46z"/>
<path d="M900 5070 c0 -5 5 -10 10 -10 6 0 10 5 10 10 0 6 -4 10 -10 10 -5 0
-10 -4 -10 -10z"/>
<path d="M1558 5062 c-3 -10 -3 -32 0 -50 3 -25 9 -32 26 -31 11 0 15 3 9 6
-15 5 -17 35 -4 49 5 5 2 16 -9 27 -17 17 -18 17 -22 -1z"/>
<path d="M1815 5056 c-12 -18 -13 -30 -6 -50 9 -21 17 -26 46 -26 32 0 35 2
35 30 0 23 -4 30 -20 30 -24 0 -26 -15 -3 -24 12 -5 13 -10 5 -18 -19 -19 -44
-1 -40 29 2 22 9 29 31 31 36 4 35 22 -3 22 -20 0 -34 -8 -45 -24z"/>
<path d="M2617 5060 c-8 -31 7 -75 27 -78 15 -3 16 -1 5 16 -10 16 -10 23 0
36 9 11 10 16 2 16 -6 0 -11 7 -11 15 0 22 -17 18 -23 -5z"/>
<path d="M3020 5065 c0 -8 -8 -15 -19 -15 -26 0 -44 -25 -36 -50 5 -15 15 -20
41 -20 l34 0 0 50 c0 28 -4 50 -10 50 -5 0 -10 -7 -10 -15z m0 -56 c0 -25 -33
-22 -38 4 -2 12 3 17 17 17 15 0 21 -6 21 -21z"/>
<path d="M180 5016 c0 -20 5 -36 10 -36 6 0 10 11 10 25 0 16 6 25 15 25 9 0
15 -9 15 -25 0 -14 5 -25 11 -25 6 0 9 14 7 33 -3 28 -7 32 -35 35 -32 3 -33
2 -33 -32z"/>
<path d="M420 5031 c-16 -31 -2 -51 34 -50 23 1 25 3 9 6 -13 2 -23 8 -23 13
0 5 10 11 23 13 l22 4 -22 2 c-13 0 -23 5 -23 10 0 5 10 12 23 14 19 4 18 4
-5 6 -18 1 -31 -6 -38 -18z"/>
<path d="M540 5016 c0 -20 5 -36 10 -36 6 0 10 12 10 26 0 21 3 24 21 19 15
-5 20 -3 17 6 -3 8 -17 15 -31 17 -25 3 -27 0 -27 -32z"/>
<path d="M775 5040 c4 -6 11 -8 16 -5 5 4 15 3 22 -2 8 -5 2 -9 -18 -13 -44
-8 -39 -34 8 -38 31 -3 37 0 37 17 0 37 -11 51 -42 51 -17 0 -27 -4 -23 -10z
m40 -40 c3 -5 -3 -10 -15 -10 -12 0 -18 5 -15 10 3 6 10 10 15 10 5 0 12 -4
15 -10z"/>
<path d="M900 5015 c0 -19 5 -35 10 -35 6 0 10 16 10 35 0 19 -4 35 -10 35 -5
0 -10 -16 -10 -35z"/>
<path d="M990 5015 c0 -41 17 -47 22 -7 4 33 22 32 26 -3 4 -29 22 -34 22 -6
0 37 -12 51 -41 51 -26 0 -29 -3 -29 -35z"/>
<path d="M1129 5048 c-6 -23 -5 -68 2 -68 5 0 9 11 9 25 0 16 6 25 15 25 9 0
15 -9 15 -25 0 -14 5 -25 10 -25 6 0 10 14 10 31 0 17 4 28 10 24 6 -3 10 -17
10 -31 0 -13 5 -24 11 -24 6 0 9 14 7 33 -3 31 -5 32 -50 35 -27 2 -48 2 -49
0z"/>
<path d="M1300 5035 c-20 -24 -8 -50 25 -52 l30 -3 -25 12 -25 11 25 7 25 7
-25 5 -25 5 25 11 c23 10 23 11 4 11 -12 1 -27 -6 -34 -14z"/>
<path d="M1420 5015 c0 -19 5 -35 10 -35 6 0 10 11 10 25 0 16 6 25 15 25 9 0
15 -9 15 -25 0 -14 5 -25 10 -25 6 0 10 9 10 19 0 37 -12 51 -41 51 -26 0 -29
-3 -29 -35z"/>
<path d="M1962 5018 c3 -29 7 -33 36 -36 31 -3 32 -2 32 32 0 20 -4 36 -10 36
-5 0 -10 -13 -10 -30 0 -20 -5 -30 -15 -30 -10 0 -15 10 -15 30 0 17 -5 30
-11 30 -6 0 -9 -14 -7 -32z"/>
<path d="M2105 5040 c3 -5 12 -7 20 -3 8 3 15 0 15 -5 0 -6 -10 -12 -22 -14
-39 -5 -28 -33 15 -36 33 -3 37 -1 37 20 0 13 -5 29 -12 36 -14 14 -62 16 -53
2z m40 -40 c3 -5 -3 -10 -15 -10 -12 0 -18 5 -15 10 3 6 10 10 15 10 5 0 12
-4 15 -10z"/>
<path d="M2230 5016 c0 -20 5 -36 10 -36 6 0 10 12 10 26 0 21 3 24 21 19 15
-5 20 -3 17 6 -3 8 -17 15 -31 17 -25 3 -27 0 -27 -32z"/>
<path d="M2360 5044 c43 -16 44 -17 15 -23 -44 -9 -39 -35 8 -39 38 -3 38 -3
35 30 -3 30 -6 33 -38 35 -19 1 -28 0 -20 -3z m40 -44 c0 -5 -9 -10 -21 -10
-11 0 -17 5 -14 10 3 6 13 10 21 10 8 0 14 -4 14 -10z"/>
<path d="M2487 5044 c-11 -11 -8 -64 3 -64 6 0 10 11 10 25 0 16 6 25 15 25 9
0 15 -9 15 -25 0 -14 5 -25 11 -25 6 0 9 14 7 33 -2 26 -8 33 -28 35 -14 2
-29 0 -33 -4z"/>
<path d="M2724 5036 c-12 -31 1 -51 31 -53 20 -1 23 0 8 4 -13 2 -23 9 -23 14
0 5 10 9 23 10 21 1 21 1 -3 9 l-25 7 25 11 25 11 -28 0 c-15 1 -30 -5 -33
-13z"/>
<path d="M2850 5035 c-20 -24 -8 -50 25 -52 17 -1 22 1 13 3 -10 3 -18 9 -18
14 0 5 8 11 18 13 12 3 11 5 -6 6 -13 0 -20 5 -17 11 4 6 10 8 15 5 5 -3 11
-1 15 5 10 16 -31 12 -45 -5z"/>
<path d="M1635 4990 c-3 -5 -1 -10 4 -10 6 0 11 5 11 10 0 6 -2 10 -4 10 -3 0
-8 -4 -11 -10z"/>
<path d="M2612 4270 c0 -14 2 -19 5 -12 2 6 2 18 0 25 -3 6 -5 1 -5 -13z"/>
<path d="M2611 4224 c0 -11 3 -14 6 -6 3 7 2 16 -1 19 -3 4 -6 -2 -5 -13z"/>
<path d="M2622 4105 c0 -16 2 -22 5 -12 2 9 2 23 0 30 -3 6 -5 -1 -5 -18z"/>
<path d="M40 3000 l0 -900 973 0 974 0 12 66 c11 59 44 175 67 229 8 19 7 19
-10 2 -23 -23 -76 -50 -76 -39 0 4 16 47 35 95 76 189 86 239 95 497 9 258 16
298 76 418 44 89 75 126 162 191 82 60 121 122 156 245 15 48 26 90 26 92 0 2
-560 4 -1245 4 l-1245 0 0 -900z m1080 475 l0 -115 -116 0 c-110 0 -149 -8
-166 -34 -4 -6 -8 -58 -8 -116 l0 -105 192 0 193 0 3 -112 3 -113 -196 0 -195
0 0 -99 c0 -96 1 -100 26 -120 25 -20 39 -21 240 -21 l213 0 3 453 c2 345 6
457 16 475 16 27 53 29 77 2 10 -11 104 -194 211 -407 l192 -388 1 408 1 407
55 0 55 0 0 -556 c0 -491 -2 -560 -16 -590 -17 -36 -52 -46 -72 -21 -6 7 -100
191 -209 408 l-198 394 -3 -407 -2 -408 -253 0 c-152 0 -268 4 -292 11 -60 17
-116 80 -140 159 -18 60 -20 95 -20 423 l0 357 -107 0 -108 0 0 -476 0 -475
-52 3 -53 3 -3 473 -2 472 -120 0 -120 0 0 115 0 115 485 0 485 0 0 -115z"/>
<path d="M2686 3888 c-3 -7 -7 -76 -10 -153 -9 -229 -41 -379 -103 -484 l-26
-45 -2 -265 c-2 -248 -3 -273 -27 -371 -45 -185 -105 -303 -207 -410 l-57 -60
1848 0 1848 0 0 900 0 900 -1630 0 c-1296 0 -1631 -3 -1634 -12z m506 -458 l0
-65 -177 -5 c-159 -5 -178 -7 -191 -24 -20 -28 -27 -76 -22 -157 6 -103 16
-109 169 -109 65 0 129 -5 142 -11 14 -6 35 -30 48 -53 22 -38 24 -53 27 -201
2 -147 0 -165 -20 -215 -15 -34 -32 -59 -48 -67 -17 -9 -81 -13 -207 -13
l-183 0 0 70 0 70 179 0 180 0 21 27 c19 25 21 38 18 124 -2 62 -8 102 -17
112 -11 14 -35 17 -146 17 -151 0 -167 7 -208 83 -19 38 -22 57 -22 197 0 151
1 156 28 208 41 77 57 82 261 79 l168 -2 0 -65z m434 54 c55 -26 72 -76 80
-234 10 -208 -15 -333 -72 -359 -15 -6 -81 -11 -164 -11 l-140 0 0 -185 0
-185 -35 0 -35 0 0 488 c0 269 3 492 7 495 3 4 78 7 166 7 125 0 166 -3 193
-16z m564 1 c74 -38 100 -163 99 -475 0 -339 -23 -456 -95 -486 -39 -16 -297
-20 -337 -5 -16 6 -35 31 -53 68 l-29 58 0 355 0 355 29 58 c38 79 56 86 224
87 100 0 140 -4 162 -15z m555 -27 c47 -51 55 -90 55 -271 0 -140 -2 -162 -21
-198 l-20 -40 20 -43 c19 -38 21 -61 21 -219 l0 -177 -30 0 -30 0 0 133 c-1
151 -11 215 -35 234 -13 9 -57 12 -151 11 l-134 -1 0 -189 0 -188 -35 0 -35 0
0 496 0 495 181 -3 181 -3 33 -37z m563 -30 l3 -68 -101 0 -100 0 0 -425 0
-425 -35 0 -35 0 0 425 0 425 -95 0 c-83 0 -95 2 -96 18 -2 24 -2 73 0 100 l1
22 228 -2 227 -3 3 -67z m502 2 l0 -70 -175 0 c-163 0 -175 -1 -193 -21 -33
-34 -44 -152 -21 -218 15 -44 40 -51 175 -51 132 0 152 -8 187 -74 20 -37 22
-55 22 -201 0 -151 -1 -163 -25 -210 -14 -27 -36 -56 -50 -62 -17 -9 -83 -13
-207 -13 l-183 0 0 70 0 70 178 0 c138 0 183 3 198 14 16 12 20 29 22 115 6
151 8 149 -167 153 -154 3 -164 7 -196 75 -40 83 -36 334 6 420 32 66 52 72
257 73 l172 0 0 -70z"/>
<path d="M3330 3191 l0 -171 134 0 c133 0 135 0 155 26 19 24 21 40 21 144 0
166 2 164 -174 168 l-136 4 0 -171z"/>
<path d="M3882 3353 c-7 -3 -19 -18 -28 -35 -13 -26 -16 -74 -15 -299 0 -279
7 -341 41 -359 10 -5 79 -10 153 -10 155 0 160 3 177 90 12 62 12 463 1 534
-13 79 -28 86 -185 85 -72 0 -137 -3 -144 -6z"/>
<path d="M4420 3190 l0 -170 141 3 c123 2 142 4 154 20 34 46 29 263 -6 298
-17 17 -35 19 -154 19 l-135 0 0 -170z"/>
<path d="M2621 3744 c0 -11 3 -14 6 -6 3 7 2 16 -1 19 -3 4 -6 -2 -5 -13z"/>
<path d="M2612 3650 c0 -14 2 -19 5 -12 2 6 2 18 0 25 -3 6 -5 1 -5 -13z"/>
<path d="M2602 3600 c0 -14 2 -19 5 -12 2 6 2 18 0 25 -3 6 -5 1 -5 -13z"/>
<path d="M2474 3528 l-19 -23 23 19 c21 18 27 26 19 26 -2 0 -12 -10 -23 -22z"/>
<path d="M2476 3141 c-10 -86 -50 -236 -80 -305 -14 -31 -66 -114 -115 -184
-202 -287 -254 -465 -285 -972 -5 -81 -5 -83 8 -44 7 23 16 65 20 95 11 89 54
245 86 315 24 54 48 84 134 166 85 81 113 115 146 179 46 89 82 219 99 354 12
100 14 345 2 415 l-7 45 -8 -64z"/>
<path d="M2301 3104 c0 -11 3 -14 6 -6 3 7 2 16 -1 19 -3 4 -6 -2 -5 -13z"/>
<path d="M2292 2990 c0 -19 2 -27 5 -17 2 9 2 25 0 35 -3 9 -5 1 -5 -18z"/>
<path d="M2282 2905 c0 -16 2 -22 5 -12 2 9 2 23 0 30 -3 6 -5 -1 -5 -18z"/>
<path d="M3280 1031 c0 -93 -3 -183 -6 -200 l-6 -31 610 0 611 0 22 32 23 31
-22 -5 c-30 -8 -28 -2 13 43 29 32 35 47 35 83 0 74 33 102 174 151 35 12 65
29 74 43 l14 22 -771 0 -771 0 0 -169z m670 74 c0 -24 -2 -25 -74 -25 -91 0
-106 -5 -106 -36 0 -24 0 -24 120 -24 l120 0 0 -25 0 -25 -121 0 c-119 0 -120
0 -117 -22 3 -23 6 -23 150 -26 l147 -3 3 103 c3 102 3 103 28 106 18 2 59
-22 150 -89 l125 -91 3 92 3 91 32 -3 32 -3 0 -125 0 -125 -28 -3 c-22 -3 -54
15 -147 82 -65 47 -121 86 -124 86 -3 0 -6 -38 -6 -85 l0 -85 -187 0 c-170 0
-191 2 -220 20 l-33 20 0 85 0 85 -65 0 -65 0 0 -105 0 -105 -35 0 -35 0 0
105 0 105 -75 0 c-73 0 -75 1 -75 25 l0 25 300 0 300 0 0 -25z"/>
<path d="M4865 1190 c-3 -5 -2 -18 4 -27 7 -14 9 -12 8 10 -2 30 -3 31 -12 17z"/>
<path d="M4916 1188 c-2 -7 -9 -32 -15 -55 -7 -24 -24 -52 -41 -67 -25 -21
-30 -32 -30 -71 0 -84 -41 -139 -131 -179 -31 -13 30 -14 599 -15 l632 -1 0
200 0 200 -505 0 c-396 0 -506 -3 -509 -12z m84 -108 l0 -50 160 0 160 0 0 50
c0 43 3 50 20 50 19 0 20 -7 20 -130 0 -122 -1 -130 -20 -130 -16 0 -19 8 -22
58 l-3 57 -157 3 -158 3 0 -61 c0 -58 -1 -61 -22 -58 -22 3 -23 7 -26 131 l-3
127 26 0 c23 0 25 -3 25 -50z m826 26 c20 -29 20 -189 -1 -210 -24 -23 -65
-27 -250 -24 l-170 3 -3 114 c-1 63 0 121 3 129 4 11 42 13 206 10 185 -3 202
-5 215 -22z"/>
<path d="M5450 1000 l0 -90 164 0 c111 0 167 4 172 11 8 14 8 145 -1 159 -4 6
-69 10 -171 10 l-164 0 0 -90z"/>
<path d="M50 1025 l0 -165 491 0 c457 0 493 1 505 18 16 20 18 36 4 27 -19
-12 -10 8 20 42 19 21 30 45 30 63 0 65 26 89 152 134 25 9 49 24 52 31 5 13
-78 15 -624 15 l-630 0 0 -165z m548 93 c-3 -21 -9 -23 -75 -26 -65 -3 -73 -5
-73 -22 0 -19 7 -20 100 -20 93 0 100 -1 100 -20 0 -18 -8 -20 -97 -22 -90 -3
-98 -5 -98 -23 0 -19 8 -20 123 -23 l122 -3 0 86 c0 68 3 87 15 91 17 7 63
-21 165 -99 l65 -50 3 77 3 77 27 -3 c27 -3 27 -4 30 -88 5 -158 -8 -163 -153
-55 l-100 73 -3 -74 -3 -74 -153 0 c-140 0 -156 2 -180 21 -23 18 -26 27 -26
85 l0 64 -55 0 -55 0 0 -85 c0 -84 0 -85 -25 -85 -25 0 -25 1 -25 85 l0 85
-59 0 c-60 0 -77 9 -67 35 4 13 46 15 251 15 l246 0 -3 -22z"/>
<path d="M1395 1153 c-3 -20 -20 -49 -36 -65 -23 -23 -29 -39 -29 -71 0 -58
-18 -87 -72 -123 l-47 -30 922 -3 c507 -1 929 0 937 4 12 4 15 29 14 143 -1
75 -2 147 -3 160 l-1 22 -839 0 -839 0 -7 -37z m246 -62 c10 -12 16 -27 13
-32 -8 -14 -30 -11 -44 6 -16 19 -165 22 -176 3 -13 -20 -15 -68 -4 -89 9 -16
22 -19 89 -19 66 0 81 3 92 19 9 12 20 17 31 13 15 -6 16 -11 5 -32 -12 -24
-17 -25 -122 -28 -102 -3 -111 -1 -127 19 -26 31 -25 120 2 144 11 10 18 20
16 24 -2 3 43 4 101 1 95 -5 107 -7 124 -29z m275 4 c9 -12 13 -30 9 -45 -7
-29 -7 -34 1 -81 5 -31 3 -37 -14 -42 -26 -6 -32 0 -32 34 0 33 -14 39 -95 39
l-64 0 -3 -37 c-2 -26 -8 -38 -18 -38 -12 0 -16 19 -20 93 -3 52 -3 96 0 99 3
2 54 3 113 1 95 -3 111 -6 123 -23z m74 -69 c0 -71 -3 -95 -14 -99 -23 -9 -26
2 -26 100 0 86 1 93 20 93 19 0 20 -7 20 -94z m256 88 c22 -6 48 -47 37 -58
-12 -12 -41 -6 -47 9 -5 13 -21 15 -88 13 l-83 -3 0 -55 0 -55 76 -3 c63 -2
79 0 98 17 21 18 51 19 51 1 0 -4 -8 -17 -17 -29 -16 -18 -30 -21 -121 -22
-119 -2 -142 9 -136 64 1 18 3 49 3 70 1 29 6 40 24 47 25 10 170 13 203 4z
m104 -34 c0 -34 3 -40 20 -40 12 0 45 18 74 40 49 37 106 54 106 31 0 -6 -25
-27 -55 -48 -30 -21 -55 -40 -55 -43 0 -3 23 -20 51 -39 27 -19 54 -42 59 -51
9 -16 6 -17 -26 -10 -33 8 -108 52 -120 72 -3 4 -16 8 -29 8 -20 0 -24 -6 -27
-37 -2 -27 -8 -39 -20 -41 -16 -3 -18 7 -18 97 0 94 1 101 20 101 17 0 20 -7
20 -40z m446 18 c2 -16 -7 -18 -82 -18 -77 0 -84 -2 -84 -20 0 -17 8 -19 77
-22 65 -3 78 -6 81 -20 3 -16 -6 -18 -77 -18 -74 0 -81 -2 -81 -20 0 -18 7
-20 79 -20 62 0 80 -3 85 -15 8 -23 -9 -26 -115 -23 l-94 3 -3 84 c-2 46 -1
90 2 97 3 9 33 12 107 11 89 -2 102 -4 105 -19z m262 0 c3 -15 -4 -18 -47 -18
l-50 0 -3 -77 c-3 -65 -6 -78 -20 -81 -16 -3 -18 6 -18 77 l0 81 -48 0 c-53 0
-63 5 -55 26 4 10 31 13 121 11 102 -2 117 -4 120 -19z"/>
<path d="M1720 1055 c0 -26 0 -26 78 -23 69 3 77 5 77 23 0 18 -8 20 -77 23
-78 3 -78 3 -78 -23z"/>
<path d="M1272 1021 c-12 -17 -48 -44 -80 -60 -63 -32 -115 -81 -131 -124 -17
-44 -13 -55 7 -22 10 17 34 37 53 46 140 66 152 73 166 107 8 19 13 45 11 59
l-3 25 -23 -31z"/>
<path d="M4787 1013 c-11 -30 -58 -68 -127 -103 -31 -16 -72 -41 -90 -56 -34
-29 -70 -95 -69 -129 l0 -20 11 20 c25 46 64 75 127 96 115 38 165 92 159 172
-2 35 -4 38 -11 20z"/>
<path d="M50 711 c-14 -27 -13 -47 6 -65 17 -18 64 -22 64 -6 0 6 -11 10 -24
10 -14 0 -28 5 -31 10 -4 6 7 10 24 10 17 0 31 5 31 10 0 6 -14 10 -31 10 -26
0 -29 2 -19 14 6 8 21 17 33 19 15 3 12 5 -10 6 -23 1 -35 -5 -43 -18z"/>
<path d="M323 723 c4 -3 2 -12 -4 -19 -6 -8 -7 -14 0 -18 6 -4 8 -13 5 -20 -6
-15 23 -42 34 -31 4 4 1 10 -5 12 -17 6 -17 40 -1 45 9 3 8 9 -4 21 -9 9 -20
17 -24 17 -4 0 -4 -3 -1 -7z"/>
<path d="M667 717 c-10 -27 8 -82 28 -86 17 -3 17 -1 6 12 -7 9 -12 24 -11 34
5 47 -10 73 -23 40z"/>
<path d="M905 720 c3 -5 8 -10 11 -10 2 0 4 5 4 10 0 6 -5 10 -11 10 -5 0 -7
-4 -4 -10z"/>
<path d="M1557 716 c-8 -20 7 -79 21 -84 6 -2 12 1 12 7 0 6 -4 11 -10 11 -14
0 -12 38 2 42 9 3 8 9 -4 21 -12 13 -17 14 -21 3z"/>
<path d="M1810 711 c-23 -43 1 -81 51 -81 26 0 29 3 29 30 0 26 -3 30 -27 29
-17 -1 -21 -3 -10 -6 23 -6 22 -33 -2 -33 -24 0 -37 36 -21 55 6 8 24 16 38
18 21 3 19 4 -10 6 -28 1 -40 -4 -48 -18z"/>
<path d="M2617 717 c-7 -20 7 -80 19 -84 7 -2 10 11 8 34 -2 21 -3 44 -3 51
-1 16 -18 16 -24 -1z"/>
<path d="M3010 720 c0 -6 -11 -15 -25 -20 -43 -16 -26 -70 22 -70 21 0 23 4
23 50 0 28 -4 50 -10 50 -5 0 -10 -5 -10 -10z m0 -50 c0 -21 -24 -28 -35 -10
-8 14 3 30 21 30 8 0 14 -9 14 -20z"/>
<path d="M192 668 c1 -37 2 -39 5 -10 6 42 33 44 33 2 0 -16 5 -30 10 -30 6 0
10 15 10 34 0 26 -5 35 -22 40 -37 9 -38 8 -36 -36z"/>
<path d="M437 698 c-32 -18 -14 -68 25 -68 26 0 22 18 -4 23 l-23 4 23 2 c12
0 22 6 22 11 0 6 -10 10 -22 11 -22 1 -22 1 2 8 19 5 21 8 9 13 -8 3 -23 2
-32 -4z"/>
<path d="M775 700 c-4 -6 6 -11 22 -11 22 -1 24 -3 6 -6 -32 -6 -47 -28 -29
-42 23 -19 60 -10 64 15 5 36 -46 72 -63 44z m38 -47 c-7 -2 -19 -2 -25 0 -7
3 -2 5 12 5 14 0 19 -2 13 -5z"/>
<path d="M1133 701 c-10 -7 -10 -57 0 -68 4 -3 7 8 7 25 0 22 5 32 15 32 10 0
15 -10 15 -31 0 -17 4 -28 10 -24 6 3 10 17 10 31 0 13 5 24 10 24 6 0 10 -13
10 -30 0 -16 5 -30 10 -30 13 0 13 57 0 65 -15 10 -76 14 -87 6z"/>
<path d="M1306 698 c-32 -18 -12 -68 26 -68 26 0 22 18 -4 23 l-23 4 23 2 c12
0 22 5 22 10 0 5 -10 12 -22 14 l-23 4 23 2 c12 0 22 5 22 9 0 11 -24 11 -44
0z"/>
<path d="M1425 702 c-10 -10 -5 -73 5 -67 6 4 10 16 8 28 -2 14 3 23 14 25 12
2 18 -5 21 -30 l4 -33 1 36 c2 32 -1 37 -23 41 -13 3 -27 3 -30 0z"/>
<path d="M1963 675 c2 -35 5 -40 28 -43 24 -3 27 1 31 32 2 20 0 36 -4 36 -4
0 -8 -12 -8 -26 0 -36 -33 -28 -42 11 -6 26 -6 25 -5 -10z"/>
<path d="M2094 699 c-3 -5 7 -9 23 -10 l28 -1 -28 -10 c-39 -14 -32 -42 11
-46 32 -3 33 -2 30 29 -2 26 -9 34 -30 40 -16 4 -30 3 -34 -2z m46 -49 c0 -5
-7 -7 -15 -4 -8 4 -15 8 -15 10 0 2 7 4 15 4 8 0 15 -4 15 -10z"/>
<path d="M2350 701 c0 -6 10 -11 23 -12 20 0 19 -2 -6 -11 -39 -14 -32 -42 11
-46 31 -3 32 -2 32 32 0 24 -5 36 -14 36 -8 0 -21 3 -30 6 -9 3 -16 1 -16 -5z
m45 -51 c-3 -5 -12 -7 -20 -3 -21 7 -19 13 6 13 11 0 18 -4 14 -10z"/>
<path d="M2487 703 c-11 -10 -8 -73 3 -73 6 0 10 14 10 30 0 20 5 30 15 30 10
0 15 -10 15 -31 0 -16 4 -28 9 -25 12 8 5 58 -11 67 -16 10 -32 11 -41 2z"/>
<path d="M2728 699 c-21 -12 -23 -40 -6 -57 15 -15 48 -16 48 -1 0 5 -4 8 -8
5 -4 -2 -14 -1 -22 5 -12 7 -10 9 8 9 12 0 22 4 22 9 0 5 -10 12 -22 14 l-23
4 23 2 c12 0 22 6 22 11 0 13 -20 12 -42 -1z"/>
<path d="M2846 694 c-9 -8 -16 -19 -16 -24 0 -14 30 -40 46 -40 20 0 17 18 -3
23 -17 4 -17 5 0 6 9 0 17 5 17 10 0 5 -8 12 -17 14 -13 3 -12 5 5 6 13 0 20
6 17 11 -9 15 -31 12 -49 -6z"/>
<path d="M552 663 c1 -37 1 -37 5 -5 5 34 12 39 31 20 9 -9 12 -8 12 5 0 11
-8 17 -25 17 -23 0 -25 -4 -23 -37z"/>
<path d="M900 671 c0 -17 5 -33 10 -36 6 -4 10 8 10 29 0 20 -4 36 -10 36 -5
0 -10 -13 -10 -29z"/>
<path d="M990 666 c0 -20 5 -36 10 -36 6 0 10 14 10 30 0 20 5 30 15 30 10 0
15 -10 15 -32 0 -23 3 -29 11 -21 6 6 9 21 7 34 -2 19 -10 25 -35 27 -32 3
-33 2 -33 -32z"/>
<path d="M2230 664 c0 -21 4 -33 10 -29 6 3 10 17 10 31 0 25 15 33 23 12 3
-8 6 -6 6 5 1 12 -7 17 -24 17 -22 0 -25 -4 -25 -36z"/>
<path d="M1630 640 c0 -5 5 -10 10 -10 6 0 10 5 10 10 0 6 -4 10 -10 10 -5 0
-10 -4 -10 -10z"/>
<path d="M3050 640 c0 -5 5 -10 10 -10 6 0 10 5 10 10 0 6 -4 10 -10 10 -5 0
-10 -4 -10 -10z"/>
</g>
</svg>
